<?xml version="1.0" encoding="UTF-8"?>
<svg id="Layer_2" data-name="Layer 2" xmlns="http://www.w3.org/2000/svg" viewBox="0 0 252.39 140.38">
  <defs>
    <style>
      .cls-1 {
        fill: #fff;
        stroke-width: 0px;
      }
    </style>
  </defs>
  <g id="Layer_1-2" data-name="Layer 1">
    <g>
      <path class="cls-1" d="m30.11,9.91c1.43-3.39-.93-8.25-4.65-8.99C22.24.28,18.91.09,15.62,0c-1.5-.04-3.1.19-4.17,1.84-.79,1.23-1.59,2.38-1.82,3.84-.67,4.29,1.05,7.96,3.04,11.54.31.55.61.88-.29.99-1.4.18-2.24.87-2.17,2.31.06,1.23-.42,1.95-1.29,2.62-.36.28-.67.65-.97,1.01-3.63,4.45-5.36,9.69-6.33,15.24-.05.27.13.81.31.87,1.21.36.97,1.21.8,2.07-.61,3.01-1.19,6.03-1.83,9.03-.21,1,.01,1.83.56,2.64,2.16,3.19,4.27,6.41,6.49,9.56.75,1.06,1,2.07.89,3.36-.08.94.3,1.93.5,2.9.06.3.23.59.25.88.18,3.22.35,6.44.49,9.67.03.61,0,1.27-.19,1.85-1.29,3.89-1.65,7.9-1.7,11.97-.01.92-.29,1.99-.81,2.73-1.16,1.65-1.67,3.39-1.51,5.38.03.42-.04.86-.12,1.28-.6,3.13-1.29,6.25-1.8,9.4-.47,2.88-1,5.78-1.03,8.68-.02,2.34-.93,4.12-2.23,5.84-.75.99-1,2.57-.21,3.58.76.97.78,1.96.57,3.08-.23,1.18-.45,2.38-.52,3.57-.08,1.54.43,1.98,1.99,2.07,2.21.12,4.42.36,6.64.4,2.95.06,6,.46,8.81-.18,3.05-.7,6.05-.88,9.11-.95,1.32-.03,2.64-.15,3.96-.25.97-.07,1.41-.43,1.28-1.58-.16-1.36-1.01-1.5-2.02-1.61-2.85-.31-5.61-.93-8.02-2.6-.92-.63-1.41-1.46-1.25-2.58.16-1.09.32-2.19.64-3.24.8-2.61.7-5.15-.36-7.65-.97-2.26-.67-4.33.53-6.46,1.02-1.82,2.01-3.75,2.51-5.75.98-3.91,1.79-7.89,2.36-11.88,1.15-8.04,2.3-16.1,2.22-24.26,0-.28.12-.76.28-.8,1.4-.34,1.32-1.48,1.37-2.5.18-3.76.75-7.51.07-11.28-.08-.44.03-1.13.33-1.4,1.92-1.74,3.7-3.71,6.36-4.4.75-.2,1.47-.51,2.21-.77-.53-.34-1.02-.45-1.5-.57-1.52-.37-1.85-.97-1.34-2.45.38-1.1.76-2.21,1.14-3.31.36-1.05.71-2.1,1.07-3.14-.64.05-1.2.19-1.45.54-.67.94-1.44,1.91-1.76,2.99-.9,3.05-3.71,3.97-5.76,5.81-.18-.24-.28-.33-.3-.43-.52-2.75-1.05-5.5-1.52-8.26-.05-.28.12-.77.34-.89.77-.43.65-.99.34-1.58-1.73-3.21-3.42-6.45-5.26-9.6-.52-.89-.79-1.64-.39-2.59.35-.82.14-1.49-.51-2.1-.49-.46-.91-.99-1.36-1.49.06-.13.11-.26.17-.39.82,0,1.64.06,2.46-.02.58-.06,1.39-.11,1.66-.48.57-.77,1.1-1.73,1.2-2.67.14-1.21.85-2.03,1.59-2.68.84-.73.99-1.28.43-2.16-1.12-1.76.35-3.23.55-4.85,0-.07.06-.13.1-.2.23.11.45.23.68.34Zm62.4,46.32c.58-1.75.02-3.14-.82-4.45-.46-.72-1.08-1.36-1.42-2.13-.23-.52-.29-1.29-.08-1.8.63-1.5.75-2.99.02-4.4-.57-1.1-.52-2.07-.26-3.22.49-2.16.62-4.32-1.02-6.19-.27-.31-.31-.86-.36-1.31-.22-2.02-2.02-3.67-4.05-3.59-1.03.04-1.69-.42-2.42-1.12-1.1-1.06-2.29-2.17-3.65-2.8-3.3-1.52-6.75-1.1-10.12-.11-1.74.51-3.4,2.55-3.26,3.89.17,1.57.43,3.14.72,4.7.24,1.29.34,2.46-.98,3.29-.6.38-.68,1.05-.05,1.45.77.49.85,1.16,1.01,1.95.77,3.92,1.47,3.99,4.55,3.88.19,0,.39-.01.58-.01,1.53-.01,1.82.38,1.28,1.81-.13.34-.38.69-.67.9-.85.62-1.76,1.15-2.61,1.77-.49.35-.86.35-1.12-.22-.4-.88-.98-.77-1.72-.44-2.85,1.26-5.73,2.45-8.58,3.71-.95.42-1.83.48-2.81.1-1.6-.62-3.24-1.12-4.84-1.71-.94-.35-1.64.16-2.17.74-.23.25-.06,1.01.13,1.45,1.55,3.55,3.04,7.09,3.05,11.1,0,.83.75,1.89,1.46,2.42.55.4,1.03.69,1.25,1.35.22.67.52,1.31.71,1.98.23.77.7,1.15,1.49,1.26,1.73.25,3.45.66,5.19.79,1.13.08,1.55.53,1.7,1.58.19,1.28.49,2.53,1.84,3.2.17.08.22.61.17.9-1.19,6.31-2.54,12.59-3.55,18.93-.54,3.37-1.37,6.49-3.45,9.25-.96,1.27-1.76,2.67-2.51,4.07-.21.39-.19,1.22.08,1.49.74.73,1.63,1.34,2.54,1.86,1.94,1.11,3.92,2.15,5.9,3.18.71.37,1.57.5,2.22.93,1.54,1.01,3.27,1.3,5.01,1.35,1,.03,1.46.36,1.63,1.24.31,1.68.67,3.36.87,5.06.28,2.4-.55,4.37-2.63,5.72-.88.57-1.81,1.07-2.69,1.64-.98.63-2.01,1.22-2.85,2-.39.37-.59,1.2-.48,1.74.06.31.9.58,1.42.65.8.11,1.63.03,2.19.03-.2.68-.76,1.58-.51,1.99.3.49,1.29.78,1.97.77,3.23-.08,6.45-.26,9.67-.49,2-.14,2.49-.9,2.25-2.97-.17-1.5-.45-3.03-.32-4.52.24-2.75.78-5.46,1.11-8.2.21-1.69.36-3.41.36-5.11,0-.86-.1-1.61.8-2.08.54-.28,1.14-.5,1.6-.88,1.3-1.08,2.56-2.22,3.79-3.38.49-.46.79-1.16,1.34-1.52.73-.49.67-.92.26-1.53-1.33-2.02-2.66-4.03-3.93-6.08-.36-.57-.68-1.24-.77-1.9-.29-2.12-.42-4.26-.68-6.38-.62-5.06-1.21-10.13-2.87-14.99-.13-.39-.1-.95.09-1.31.8-1.59,1.1-3.27.85-4.99-.22-1.52-.21-1.66,1.4-1.64,2.12.03,3.12-.96,3.11-3.06-.02-1.94-.22-3.88-.28-5.82-.01-.41.21-.83.35-1.23.19-.51.58-1,.57-1.5-.01-.84-.23-1.69-.42-2.53-1.09-4.62-2.84-8.81-7.17-11.44-1.27-.77-1.84-2.1-1.95-3.56-.03-.38.2-1.02.49-1.15,2.61-1.15,3.61-3.27,3.8-5.94.07-.92.22-1.84.33-2.76.11-.03.22-.06.34-.09.7,1.35,1.42,2.67,3.12,2.79-.06.35-.05.51-.11.65-1.03,2.34-.92,4.52.75,6.57.23.28.24.9.11,1.28-.53,1.52-.4,2.98.21,4.44.17.41.33.91.25,1.33-.28,1.54.08,2.93.8,4.27.74,1.38,1.47,2.76,2.28,4.28.1-1.17.19-2.3.29-3.44.08,0,.15-.02.23-.03.21.73.42,1.45.66,2.3Zm17.46-31.61c-.05-.68-.11-1.12-.11-1.57,0-2.76,0-5.53,0-8.29,0-1.77.05-1.81,1.85-1.81,8.37,0,16.74,0,25.12,0,1.45,0,1.52-.08,1.53-1.52,0-3.07,0-6.15,0-9.22,0-1.79-.03-1.82-1.83-1.82-10.28,0-20.56,0-30.84,0-2.76,0-5.53.02-8.29,0-.95-.01-1.35.36-1.31,1.31.04,1.21,0,2.41,0,3.62,0,10.08,0,20.16,0,30.24,0,1.65.05,1.69,1.71,1.7,3.93,0,7.87-.01,11.8.01.84,0,1.34-.27,1.71-1.07.87-1.92,2.38-3.3,4.43-3.65,1.84-.31,3.8-.37,5.65-.13,2.63.35,4.41,2.03,5.31,4.54.66,1.82.72,3.7.51,5.63-.46,4.13-2.89,6.86-6.79,7.49-4.46.71-8.1-1.07-9.71-4.87-.37-.87-.89-1.14-1.77-1.13-3.89.03-7.79.01-11.68.01-1.89,0-2.07.21-1.74,2.13,1.13,6.51,4.85,11.01,10.82,13.66,6.35,2.81,13.01,3.1,19.7,1.82,7.66-1.47,12.86-5.97,15.2-13.54.97-3.14,1.1-6.38.82-9.6-.55-6.47-3.03-12.03-8.9-15.29-6.58-3.65-13.46-3.69-20.29-.48-.93.44-1.75,1.13-2.88,1.87Zm57.07,26.22l-.19-.42c.2-.12.4-.23.58-.37,5.23-3.76,10.03-8,14.43-12.7,5.38-5.76,8.64-12.34,7.9-20.45-.61-6.69-3.88-11.61-10.07-14.31-5.76-2.51-11.83-2.54-17.89-1.32-4.46.9-8.33,2.93-11.34,6.48-3.08,3.63-4.37,7.91-4.79,12.55-.09.97.3,1.33,1.25,1.33,4.01-.02,8.02-.03,12.03,0,.9,0,1.34-.28,1.44-1.23.18-1.83.56-3.63,1.7-5.15,1.85-2.45,4.39-3.11,7.28-2.57,2.92.54,4.49,2.19,5.05,5.09.55,2.83.07,5.53-1.23,8.04-2.71,5.25-6.76,9.4-11.25,13.11-5.01,4.14-10.16,8.1-15.22,12.19-.44.36-.8,1.08-.82,1.65-.08,2.72-.01,5.45-.05,8.17-.02,1.03.42,1.35,1.4,1.35,14.1-.02,28.19-.02,42.29,0,1.09,0,1.41-.44,1.4-1.47-.04-2.8,0-5.6-.02-8.41,0-1.49-.08-1.56-1.61-1.56-6.97,0-13.94,0-20.91,0-.45,0-.91,0-1.36,0Zm-34.31,37.27l.32-.09c.39.51.79,1,1.16,1.52,3.26,4.6,6.5,9.22,9.79,13.8.32.44.95.87,1.47.91,1.71.11,3.42.03,5.14.05.73,0,1.06-.33,1.05-1.06-.01-1.05,0-2.1,0-3.15,0-7.12-.02-14.24.02-21.36,0-1.12-.38-1.53-1.49-1.48-1.32.07-2.65,0-3.97.02-1.43,0-1.51.08-1.51,1.54,0,4.51,0,9.03,0,13.54v1.32c-.11.03-.21.05-.32.08-.23-.29-.46-.57-.68-.87-3.43-4.87-6.86-9.73-10.27-14.61-.47-.67-.98-1.03-1.82-1-1.56.04-3.11.03-4.67,0-.85-.02-1.2.33-1.18,1.18.03,1.32,0,2.65,0,3.97,0,6.81.02,13.62-.02,20.43,0,1.11.37,1.54,1.49,1.49,1.32-.07,2.65,0,3.97-.02,1.42-.01,1.51-.09,1.51-1.55,0-4.44,0-8.87,0-13.31,0-.44,0-.89,0-1.33Zm42.81,39.65c-.12.03-.24.05-.36.08-.21-.27-.44-.52-.63-.8-3.45-4.9-6.88-9.81-10.37-14.68-.33-.46-1.01-.91-1.56-.95-1.62-.13-3.27-.03-4.9-.05-.8-.01-1.11.36-1.11,1.13,0,8.25.01,16.5,0,24.74,0,.86.38,1.18,1.2,1.17,1.36-.03,2.72,0,4.09,0,1.61,0,1.66-.05,1.66-1.62,0-4.44,0-8.87,0-13.31,0-.41,0-.82,0-1.22.1-.03.19-.06.29-.1.26.32.53.62.76.95,3.39,4.8,6.76,9.61,10.19,14.38.33.45,1.04.84,1.6.88,1.63.12,3.27.02,4.9.05.83.01,1.19-.32,1.19-1.17-.01-8.25-.01-16.5,0-24.74,0-.88-.41-1.15-1.22-1.13-1.4.03-2.8,0-4.2,0-1.45,0-1.53.08-1.53,1.52,0,4.51,0,9.03,0,13.54,0,.45,0,.9,0,1.34Zm-55.92-7.34c.93,0,1.87-.02,2.8,0,.93.03,1.2-.3.83-1.19-1.01-2.45-2.58-4.42-4.84-5.83-3.55-2.21-7.4-2.65-11.46-2.03-5.5.85-9.98,4.87-11.09,10.02-1.35,6.25.7,11.91,5.74,14.96,4.9,2.97,10.12,3.06,15.34.82,2.95-1.27,5.02-3.49,6.24-6.47.49-1.2.36-1.37-.9-1.38-1.67-.01-3.35.03-5.02-.02-.83-.02-1.37.3-1.87.94-2.73,3.48-8.48,3.4-11.23-.08-1.61-2.03-1.8-4.37-1.52-6.76.33-2.85,1.85-4.99,4.6-5.94,2.69-.92,5.43-.75,7.47,1.43,1.15,1.23,2.29,1.71,3.86,1.52.35-.04.7,0,1.05,0Zm68.57-24.03c-.82,0-1.64.05-2.45-.01-1.06-.08-1.28.41-1.07,1.33.41,1.86,1.33,3.38,2.85,4.54,1.63,1.25,3.5,1.91,5.49,2.13,3.66.41,7.22.32,10.36-2.08,3.56-2.72,4.53-9.12-.74-11.88-1.57-.83-3.31-1.33-4.97-2-1.55-.62-3.19-1.09-4.62-1.91-1.72-.99-1.45-3.27.34-4.11,1.71-.8,3.89-.13,4.72,1.54.35.7.79.97,1.54.96,1.67-.03,3.35-.03,5.02,0,1.03.02,1.28-.41,1.06-1.38-.52-2.22-1.71-3.95-3.74-4.96-4.54-2.26-9.14-2.26-13.69,0-1.5.75-2.62,1.94-3.22,3.55-1.44,3.87.18,7.79,3.99,9.37,1.94.8,3.99,1.31,5.96,2.03,1.05.39,2.11.83,3.02,1.47,1.13.79,1.21,2.46.34,3.41-1.48,1.61-4.97,1.39-5.9-.58-.65-1.36-1.52-1.56-2.76-1.46-.5.04-1.01,0-1.52,0Zm46.47,28.46c0,4.05.02,8.09-.01,12.14,0,.95.26,1.43,1.32,1.42,5.06-.03,10.12-.03,15.18,0,.91,0,1.27-.37,1.23-1.26-.04-.82-.06-1.64,0-2.45.08-1.09-.4-1.42-1.44-1.41-2.68.05-5.37,0-8.06.02-.89,0-1.29-.34-1.26-1.24.03-1.09,0-2.18,0-3.27,0-1.5.11-1.6,1.58-1.61,2.18-.01,4.36-.02,6.54,0,.89.01,1.29-.35,1.25-1.25-.03-.7,0-1.4,0-2.1-.02-1.43-.11-1.53-1.53-1.54-2.18-.01-4.36-.03-6.54,0-.95.01-1.35-.37-1.31-1.32.04-.93,0-1.87,0-2.8.01-1.41.12-1.52,1.54-1.53,2.61,0,5.22-.03,7.82.01.99.02,1.45-.3,1.38-1.34-.06-.85-.06-1.71,0-2.57.08-1.07-.35-1.43-1.42-1.42-4.94.04-9.89.04-14.83,0-1.12,0-1.5.37-1.49,1.49.05,4.01.02,8.01.02,12.02Zm-20.57-.09c0,4.05.03,8.09-.02,12.14-.01,1.08.32,1.57,1.46,1.52,1.36-.07,2.73-.06,4.08,0,1.05.05,1.46-.34,1.44-1.41-.05-2.72.02-5.45-.03-8.17-.02-1.08.41-1.45,1.45-1.42,2.02.05,4.05-.02,6.07.02.98.02,1.46-.31,1.38-1.34-.05-.74-.05-1.48,0-2.22.07-1.03-.39-1.37-1.38-1.35-2.06.04-4.12,0-6.19.02-.92.01-1.37-.33-1.33-1.3.04-.97,0-1.94,0-2.92,0-1.59.08-1.67,1.63-1.67,2.84,0,5.68,0,8.52,0,1.46,0,1.55-.1,1.56-1.49,0-.78-.05-1.56.01-2.33.09-1.12-.38-1.49-1.49-1.49-5.21.04-10.43.01-15.64.02-1.48,0-1.55.07-1.55,1.61,0,3.93,0,7.86,0,11.79Zm-72.72-49.32c2.71-.16,5-2.2,5.32-4.86.03-.23-.03-.58-.19-.71-.47-.4-2.98-.07-3.26.44-.68,1.22-1.69,1.26-2.81.86-.66-.23-1.28-.58-1.91-.87-3.51-1.62-7.12.27-7.78,4.08-.05.26,0,.68.17.82.61.49,2.88-.01,3.35-.71.58-.85,1.34-1.17,2.32-.81.76.29,1.49.67,2.26.95.83.3,1.69.54,2.53.81Zm-98.89-25.6c.19-.19.56-.43.74-.78.26-.51.49-1.09.51-1.65.02-.46-.15-1.11-.48-1.36-1.24-.98-2.59-1.83-3.89-2.75-.52-.37-.85-.26-1.05.33-.42,1.25-.85,2.49-1.25,3.75-.21.67.05,1.15.74,1.33,1.47.37,2.94.72,4.69,1.14Zm2.4-6.16c.48-1.52.87-2.73,1.23-3.95.39-1.33.02-1.68-1.39-1.72-.85-.02-1.68-.38-2.53-.52-.55-.08-1.28-.25-1.64.02-.73.54-.98,2.47-.5,2.82,1.5,1.09,3.05,2.12,4.82,3.34Zm.37,3.05c-.18-.06-.36-.12-.54-.18-.22.68-.44,1.36-.66,2.04.14.05.27.09.41.14l.79-2Zm-3.42-3.06c-.06.1-.13.21-.19.31.79.52,1.57,1.04,2.36,1.56.06-.1.13-.2.19-.31-.79-.52-1.57-1.05-2.36-1.57Z"/>
      <path class="cls-1" d="m151.11,115.76c-4.13-4.23-9.17-5.35-14.78-4.35-8.56,1.53-13.54,10.19-10.57,18.22,1.98,5.36,7.59,9.24,13.83,9.02,4.67.11,8.48-1.44,11.61-4.76,4.54-4.81,4.4-13.55-.08-18.13Zm-11.35,17.07c-4.65,0-7.73-3.17-7.74-7.95,0-4.86,3.07-8,7.81-7.99,4.64.02,7.68,3.18,7.67,8,0,4.77-3.1,7.94-7.74,7.94Z"/>
      <path class="cls-1" d="m182.03,84.99c-2.6-5.6-7.47-7.83-14.02-8.08-.98.16-2.56.23-4.03.67-5.34,1.59-9,4.97-10.05,10.56-1.07,5.68.8,10.45,5.59,13.74,4.86,3.34,10.22,3.61,15.58,1.35,7.7-3.25,10.01-11.63,6.94-18.23Zm-13.58,13.74c-4.65-.02-7.68-3.17-7.68-7.99,0-4.8,3.05-7.94,7.72-7.95,4.66,0,7.75,3.15,7.76,7.92.01,4.83-3.1,8.03-7.8,8.01Z"/>
      <path class="cls-1" d="m124.2,103.58c-3.27-8.46-6.54-16.91-9.8-25.38-.29-.74-.79-.97-1.54-.96-1.91.02-3.82.03-5.72,0-.81-.01-1.28.26-1.59,1.04-3.18,8.28-6.39,16.56-9.61,24.83-.37.94-.04,1.19.85,1.18,1.52-.02,3.04-.06,4.55.02,1.09.05,1.66-.36,1.93-1.4.19-.75.56-1.46.78-2.2.24-.79.69-1.13,1.53-1.12,2.92.03,5.84.03,8.76,0,.78,0,1.24.32,1.48,1.04.32.92.62,1.85,1.03,2.73.17.37.61.85.94.86,2.13.08,4.26.04,6.52.04-.06-.39-.06-.55-.11-.68Zm-11.49-9.06c-1.9,0-3.8,0-5.7-.03-.14,0-.27-.11-.59-.24,1.12-3.13,2.23-6.23,3.43-9.6.32.55.5.79.6,1.07.94,2.59,1.86,5.18,2.79,7.77.21.57.25,1.02-.54,1.03Z"/>
      <path class="cls-1" d="m212.23,137c-2.83-7.33-5.67-14.66-8.52-21.99-.46-1.18-.73-2.75-1.63-3.37-.9-.62-2.47-.28-3.74-.36,0,.03,0,.05,0,.08-.93,0-1.87.05-2.8-.01-.99-.07-1.46.39-1.79,1.28-1.08,2.92-2.22,5.81-3.35,8.72-2.02,5.22-4.06,10.45-6.08,15.67-.46,1.18-.33,1.36.94,1.38,1.52.02,3.04-.04,4.55.02.95.04,1.44-.37,1.7-1.23.25-.82.57-1.61.83-2.43.23-.72.69-1.06,1.47-1.05,2.96.02,5.92.02,8.88,0,.73,0,1.16.28,1.39.98.28.85.66,1.67.9,2.53.25.91.79,1.23,1.71,1.2,1.52-.05,3.04,0,4.55-.01,1.38-.01,1.46-.14.98-1.39Zm-12.58-8.36c-1.32,0-2.65,0-3.97,0-.53,0-1-.14-.77-.81,1.02-2.92,2.08-5.84,3.12-8.75.14,0,.28,0,.41-.01,1.12,3.08,2.24,6.16,3.48,9.58-.94,0-1.6,0-2.27,0Z"/>
      <path class="cls-1" d="m40.51,39.92c.97-.47,3.91.16,4.58.98-.93.46-3.88-.17-4.58-.98Z"/>
    </g>
  </g>
</svg>