<?xml version="1.0" encoding="UTF-8"?>
<svg id="Layer_2" data-name="Layer 2" xmlns="http://www.w3.org/2000/svg" xmlns:xlink="http://www.w3.org/1999/xlink" viewBox="0 0 578.17 192.98">
  <defs>
    <style>
      .cls-1 {
        clip-path: url(#clippath);
      }

      .cls-2 {
        fill: none;
      }

      .cls-2, .cls-3, .cls-4, .cls-5, .cls-6, .cls-7, .cls-8, .cls-9, .cls-10, .cls-11, .cls-12, .cls-13, .cls-14, .cls-15, .cls-16, .cls-17, .cls-18, .cls-19, .cls-20, .cls-21, .cls-22, .cls-23, .cls-24, .cls-25, .cls-26, .cls-27, .cls-28, .cls-29, .cls-30 {
        stroke-width: 0px;
      }

      .cls-3 {
        fill: url(#linear-gradient);
      }

      .cls-4 {
        fill: #be360c;
      }

      .cls-4, .cls-5, .cls-6 {
        isolation: isolate;
        opacity: .2;
      }

      .cls-5 {
        fill: #263238;
      }

      .cls-6, .cls-22 {
        fill: #fff;
      }

      .cls-31 {
        clip-path: url(#clippath-1);
      }

      .cls-32 {
        clip-path: url(#clippath-4);
      }

      .cls-33 {
        clip-path: url(#clippath-3);
      }

      .cls-34 {
        clip-path: url(#clippath-2);
      }

      .cls-35 {
        clip-path: url(#clippath-7);
      }

      .cls-36 {
        clip-path: url(#clippath-8);
      }

      .cls-37 {
        clip-path: url(#clippath-6);
      }

      .cls-38 {
        clip-path: url(#clippath-5);
      }

      .cls-39 {
        clip-path: url(#clippath-9);
      }

      .cls-40 {
        clip-path: url(#clippath-10);
      }

      .cls-41 {
        clip-path: url(#clippath-11);
      }

      .cls-7 {
        fill: #f6f6f6;
      }

      .cls-8 {
        fill: #f3b300;
      }

      .cls-9 {
        fill: #fabb04;
      }

      .cls-10 {
        fill: #FFFF;
      }

      .cls-11 {
        fill: #5bb874;
      }

      .cls-12 {
        fill: #563689;
      }

      .cls-13 {
        fill: #7248b8;
      }

      .cls-14 {
        fill: #2683fb;
      }

      .cls-15 {
        fill: #57ba89;
      }

      .cls-16 {
        fill: #1967d1;
      }

      .cls-17 {
        fill: #4284f3;
      }

      .cls-18 {
        fill: #0f9c58;
      }

      .cls-19 {
        fill: #174ea5;
      }

      .cls-20 {
        fill: #c4221f;
      }

      .cls-21 {
        fill: #ff9400;
      }

      .cls-23 {
        fill: #e94335;
      }

      .cls-24 {
        fill: #ffb900;
      }

      .cls-25 {
        fill: #e84235;
      }

      .cls-26 {
        fill: #f0f2f3;
      }

      .cls-27 {
        fill: #f0f0f0;
      }

      .cls-28 {
        fill: #00ab47;
      }

      .cls-29 {
        fill: #0066d9;
      }

      .cls-30 {
        fill: #00822d;
      }
    </style>
    <clipPath id="clippath">
      <path class="cls-2" d="m494.51,114.16h34.31c2.17,0,3.94,1.75,3.95,3.92,0,0,0,0,0,0v45.75c0,2.17-1.78,3.93-3.95,3.92h-34.31c-2.18,0-3.95-1.74-3.96-3.92v-45.75c0-2.18,1.78-3.94,3.96-3.93h0Z"/>
    </clipPath>
    <clipPath id="clippath-1">
      <rect class="cls-2" x="479.97" y="106.96" width="63.47" height="63.47"/>
    </clipPath>
    <clipPath id="clippath-2">
      <path class="cls-2" d="m518.26,162.54h-21.14c-.72,0-1.31-.58-1.31-1.31v-40.53c0-.72.58-1.31,1.31-1.31,0,0,0,0,0,0h29.06c.73-.02,1.33.56,1.35,1.28,0,0,0,.02,0,.03v32.68"/>
    </clipPath>
    <clipPath id="clippath-3">
      <rect class="cls-2" x="479.97" y="106.96" width="63.47" height="63.47"/>
    </clipPath>
    <clipPath id="clippath-4">
      <path class="cls-2" d="m519.58,153.38h7.95l-9.27,9.15v-7.85c0-.73.6-1.31,1.32-1.31h0Z"/>
    </clipPath>
    <clipPath id="clippath-5">
      <rect class="cls-2" x="479.97" y="106.96" width="63.47" height="63.47"/>
    </clipPath>
    <clipPath id="clippath-6">
      <path class="cls-2" d="m504.73,133.42l1.87-1.82,3.73,3.71,9.33-9.28,1.87,1.85-11.19,11.12-5.6-5.58Zm-3.62,10.81v-2.61h21.11v2.61h-21.11Zm0,10.46v-2.61h10.55v2.61h-10.55Zm0-5.23v-2.61h21.11v2.61h-21.11Z"/>
    </clipPath>
    <clipPath id="clippath-7">
      <rect class="cls-2" x="479.97" y="106.96" width="63.47" height="63.47"/>
    </clipPath>
    <clipPath id="clippath-8">
      <path class="cls-2" d="m511.66,110.24c-5.75,0-11.87,3.07-11.87,6.86v4.93h23.75v-4.93c0-3.79-6.15-6.86-11.87-6.86Z"/>
    </clipPath>
    <clipPath id="clippath-9">
      <rect class="cls-2" x="479.97" y="106.96" width="63.47" height="63.47"/>
    </clipPath>
    <clipPath id="clippath-10">
      <ellipse class="cls-2" cx="511.66" cy="116.12" rx="1.98" ry="1.96"/>
    </clipPath>
    <clipPath id="clippath-11">
      <rect class="cls-2" x="479.97" y="106.96" width="63.47" height="63.47"/>
    </clipPath>
    <linearGradient id="linear-gradient" x1="550.42" y1="53.46" x2="550.42" y2="46.92" gradientUnits="userSpaceOnUse">
      <stop offset="0" stop-color="#fff"/>
      <stop offset="1" stop-color="#fff" stop-opacity="0"/>
    </linearGradient>
  </defs>
  <g id="Layer_1-2" data-name="Layer 1">
    <g>
      <g id="Layer_2-2" data-name="Layer 2">
        <g id="Layer_2-2" data-name="Layer 2-2">
          <path class="cls-10" d="m495.27,178.77h-3.9v10.68h-2.69v-10.68h-3.89v-2.14h10.47v2.14Z"/>
          <path class="cls-10" d="m500.66,189.48c-.12-.26-.21-.54-.25-.82-.61.68-1.49,1.06-2.41,1.03-.85.03-1.68-.27-2.33-.82-.6-.51-.94-1.27-.92-2.05-.05-.92.38-1.79,1.13-2.33.97-.6,2.11-.89,3.25-.82h1.18v-.55c.02-.38-.1-.76-.34-1.06-.28-.29-.68-.43-1.08-.39-.36-.02-.72.09-1,.31-.24.2-.38.51-.37.82h-2.56c0-.55.19-1.09.53-1.53.37-.49.87-.88,1.45-1.11.67-.28,1.38-.42,2.1-.4,1.01-.05,2.01.26,2.8.89.7.62,1.08,1.53,1.04,2.47v4.11c-.03.71.1,1.41.38,2.06v.15l-2.59.06Zm-2.1-1.77c.36.01.71-.06,1.04-.22.3-.14.55-.38.71-.67v-1.64h-.95c-1.27,0-1.96.44-2.04,1.33v.15c-.02.31.11.61.34.82.26.19.59.28.91.24Z"/>
          <path class="cls-10" d="m510.18,182.32c-.3-.05-.61-.07-.91-.07-.78-.1-1.53.29-1.9.98v6.25h-2.56v-9.55h2.42l.07,1.13c.4-.82,1.24-1.33,2.15-1.31.28,0,.56.04.82.12l-.09,2.46Z"/>
          <path class="cls-10" d="m515.81,189.65c-1.27.05-2.5-.41-3.43-1.28-.89-.92-1.36-2.16-1.29-3.43v-.25c-.02-.89.17-1.78.56-2.58.34-.72.89-1.33,1.57-1.74.7-.42,1.51-.63,2.33-.62,1.16-.06,2.29.39,3.09,1.24.8.98,1.21,2.23,1.13,3.5v1.04h-6.08c.06.57.32,1.1.74,1.5.43.38,1,.59,1.58.57.9.04,1.76-.36,2.31-1.07l1.25,1.41c-.4.55-.93.99-1.55,1.27-.69.31-1.44.47-2.19.45Zm-.3-7.85c-.47,0-.91.18-1.23.52-.34.42-.55.93-.6,1.47h3.55v-.21c.02-.48-.15-.95-.46-1.31-.33-.33-.79-.5-1.26-.47Z"/>
          <path class="cls-10" d="m526.71,189.48c-.12-.26-.21-.54-.25-.82-.61.68-1.49,1.06-2.41,1.03-.85.03-1.68-.27-2.33-.82-.6-.51-.94-1.27-.92-2.05-.05-.92.38-1.79,1.13-2.33.98-.61,2.13-.9,3.29-.82h1.17v-.55c.02-.38-.1-.76-.34-1.06-.28-.28-.67-.43-1.07-.39-.36-.02-.72.09-1.01.31-.24.2-.38.51-.37.82h-2.55c0-.55.18-1.09.51-1.54.37-.49.87-.88,1.45-1.11.65-.27,1.36-.4,2.06-.39,1.01-.05,2.01.26,2.8.89.7.62,1.08,1.53,1.04,2.47v4.11c-.03.71.1,1.41.38,2.06v.15l-2.57.06Zm-2.1-1.77c.36.02.72-.06,1.04-.22.3-.14.55-.38.71-.67v-1.64h-.95c-1.27,0-1.96.44-2.04,1.33v.15c-.02.31.11.61.34.82.26.19.59.28.91.24h0Z"/>
          <path class="cls-10" d="m536.05,186.84c0-.31-.18-.6-.46-.74-.47-.23-.97-.4-1.49-.48-2.28-.48-3.42-1.44-3.41-2.89,0-.83.39-1.62,1.05-2.12.8-.58,1.77-.87,2.76-.82,1.03-.06,2.06.23,2.91.82.7.52,1.11,1.35,1.09,2.23h-2.56c.01-.34-.12-.66-.35-.9-.3-.27-.7-.4-1.1-.36-.36-.02-.71.08-1,.3-.23.18-.36.45-.35.74,0,.28.16.54.4.68.42.23.88.38,1.36.45.56.1,1.11.25,1.64.43,1.19.29,2.02,1.35,2.02,2.57,0,.86-.44,1.66-1.18,2.11-.85.58-1.87.86-2.89.82-.73.02-1.46-.13-2.13-.43-.59-.25-1.09-.66-1.46-1.18-.35-.47-.54-1.05-.53-1.64h2.47c-.02.4.14.79.44,1.06.36.26.8.39,1.25.36.39.03.78-.07,1.11-.28.26-.15.42-.43.41-.72Z"/>
          <g class="cls-1">
            <g class="cls-31">
              <rect class="cls-9" x="489.93" y="113.54" width="43.46" height="54.84"/>
            </g>
          </g>
          <g class="cls-34">
            <g class="cls-33">
              <rect class="cls-17" x="495.21" y="118.78" width="32.9" height="44.38"/>
            </g>
          </g>
          <g class="cls-32">
            <g class="cls-38">
              <rect class="cls-16" x="517.64" y="152.77" width="10.48" height="10.39"/>
            </g>
          </g>
          <g class="cls-37">
            <g class="cls-35">
              <rect class="cls-26" x="500.48" y="125.42" width="22.35" height="29.9"/>
            </g>
          </g>
          <g class="cls-36">
            <g class="cls-39">
              <rect class="cls-19" x="499.17" y="109.62" width="24.99" height="13.01"/>
            </g>
          </g>
          <g class="cls-40">
            <g class="cls-41">
              <rect class="cls-22" x="509.06" y="113.54" width="5.2" height="5.16"/>
            </g>
          </g>
        </g>
      </g>
      <g id="Layer_2-3" data-name="Layer 2">
        <g id="Layer_2-2-2" data-name="Layer 2-2">
          <path class="cls-10" d="m383.05,76.74c-.04,1.25-.59,2.42-1.52,3.25-1.02.82-2.31,1.25-3.62,1.18-1.47.07-2.9-.53-3.87-1.64-1-1.3-1.5-2.92-1.41-4.55v-.82c-.03-1.13.19-2.25.65-3.29.39-.89,1.04-1.64,1.86-2.15.84-.51,1.82-.77,2.8-.75,1.29-.06,2.56.36,3.56,1.18.93.85,1.49,2.03,1.56,3.29h-2.63c0-.66-.25-1.31-.69-1.8-.51-.41-1.15-.6-1.8-.55-.81-.01-1.56.41-1.97,1.1-.5.89-.73,1.91-.67,2.93v.97c-.07,1.03.14,2.06.62,2.98.44.65,1.2,1.01,1.98.95.65.05,1.3-.15,1.82-.56.44-.46.69-1.08.69-1.72h2.64Z"/>
          <path class="cls-10" d="m390.11,80.99c-.12-.26-.21-.54-.25-.82-.62.68-1.51,1.05-2.42,1-.85.02-1.67-.27-2.31-.82-.6-.5-.94-1.25-.92-2.04-.05-.91.38-1.78,1.12-2.32.97-.6,2.1-.88,3.24-.82h1.16v-.54c.02-.38-.1-.76-.34-1.05-.28-.28-.67-.43-1.06-.39-.36-.02-.72.09-1.01.3-.24.21-.37.51-.36.82h-2.5c.01-.54.19-1.05.52-1.48.37-.49.87-.88,1.44-1.1.66-.28,1.37-.42,2.09-.4,1-.05,1.99.26,2.79.88.7.63,1.07,1.53,1.03,2.47v4.11c-.03.7.1,1.4.38,2.04v.15l-2.57.02Zm-2.1-1.76c.37,0,.74-.08,1.06-.25.29-.15.54-.38.7-.67v-1.64h-.97c-1.27,0-1.94.44-2.02,1.31v.15c-.02.31.1.61.33.82.26.2.58.3.9.28Z"/>
          <path class="cls-10" d="m396.91,80.99h-2.54v-13.47h2.54v13.47Z"/>
          <path class="cls-10" d="m403.37,81.17c-1.26.05-2.49-.41-3.4-1.28-.89-.91-1.37-2.14-1.31-3.41v-.25c-.02-.89.17-1.78.55-2.58.34-.72.89-1.33,1.57-1.74.7-.41,1.5-.62,2.31-.61,1.15-.06,2.27.39,3.07,1.23.8.97,1.2,2.22,1.12,3.48v1.04h-6.04c.05.59.31,1.13.74,1.54.43.38.99.58,1.56.56.89.04,1.75-.36,2.29-1.06l1.25,1.4c-.41.54-.95.97-1.57,1.24-.67.3-1.4.46-2.14.45Zm-.29-7.8c-.46,0-.91.18-1.22.51-.34.42-.55.93-.6,1.46h3.53v-.21c.02-.48-.15-.94-.46-1.31-.33-.32-.78-.49-1.24-.46Z"/>
          <path class="cls-10" d="m411.04,71.5l.08,1.1c.65-.84,1.67-1.32,2.73-1.27.84-.07,1.67.26,2.24.89.55.77.82,1.7.76,2.65v6.13h-2.54v-6.06c.04-.42-.09-.84-.35-1.18-.32-.27-.74-.4-1.16-.36-.68-.04-1.32.32-1.64.91v6.69h-2.5v-9.49h2.38Z"/>
          <path class="cls-10" d="m418.37,76.17c-.06-1.26.29-2.5,1-3.53.63-.86,1.65-1.35,2.72-1.31.89-.03,1.74.36,2.31,1.04v-4.84h2.55v13.47h-2.32l-.12-1c-.58.77-1.5,1.21-2.47,1.18-1.06.03-2.06-.47-2.69-1.32-.73-1.08-1.07-2.37-.99-3.67Zm2.54.19c-.04.71.12,1.42.46,2.05.29.47.81.74,1.36.71.7.04,1.36-.35,1.64-.99v-3.75c-.28-.65-.94-1.05-1.64-.99-1.21,0-1.82.99-1.82,2.97Z"/>
          <path class="cls-10" d="m434.39,80.99c-.12-.26-.21-.54-.25-.82-.6.68-1.48,1.06-2.39,1.03-.85.02-1.67-.27-2.31-.82-.6-.51-.94-1.26-.92-2.05-.04-.91.38-1.78,1.12-2.32.97-.6,2.1-.88,3.24-.82h1.17v-.54c.02-.38-.1-.76-.35-1.05-.28-.28-.67-.43-1.07-.39-.36-.02-.72.09-1,.3-.24.2-.38.51-.37.82h-2.52c0-.54.18-1.07.51-1.5.37-.49.87-.88,1.44-1.1.66-.28,1.37-.42,2.09-.4,1-.05,1.99.26,2.79.88.7.63,1.07,1.53,1.03,2.47v4.11c-.03.7.1,1.4.38,2.04v.15l-2.56.02Zm-2.1-1.76c.36,0,.72-.08,1.04-.25.3-.15.54-.38.71-.67v-1.64h-.95c-1.27,0-1.94.44-2.02,1.31v.15c-.02.31.1.61.33.82.26.2.58.3.9.28Z"/>
          <path class="cls-10" d="m443.86,73.88c-.3-.05-.61-.07-.91-.07-.77-.1-1.52.29-1.88.98v6.2h-2.54v-9.49h2.39l.07,1.13c.4-.8,1.22-1.31,2.11-1.31.28,0,.56.04.82.12l-.07,2.44Z"/>
          <path class="cls-10" d="m445.06,69.05c-.01-.36.13-.7.39-.95.6-.49,1.47-.49,2.07,0,.52.52.52,1.37,0,1.89-.28.25-.66.39-1.04.37-.38.02-.75-.11-1.03-.37-.26-.24-.41-.59-.39-.95Zm2.7,11.94h-2.55v-9.49h2.55v9.49Z"/>
          <path class="cls-10" d="m449.44,76.16c-.01-.87.17-1.72.54-2.51.33-.71.87-1.31,1.54-1.72.72-.41,1.54-.62,2.37-.61,1.16-.04,2.29.38,3.14,1.18.84.85,1.33,2,1.36,3.2v.65c.07,1.28-.37,2.54-1.22,3.5-1.83,1.77-4.74,1.77-6.57,0-.86-.99-1.29-2.28-1.22-3.58l.07-.11Zm2.53.18c-.05.73.13,1.45.51,2.07.62.8,1.77.95,2.57.33.12-.1.23-.21.33-.33.4-.68.58-1.47.52-2.26.04-.72-.14-1.44-.52-2.05-.6-.8-1.73-.97-2.53-.37-.14.11-.27.23-.37.37-.39.68-.56,1.46-.51,2.24Z"/>
          <g id="art_layer" data-name="art layer">
            <path class="cls-14" d="m407.88,35.61c-.99-.69-1.7-1.71-2.01-2.88l2.25-.93c.16.7.53,1.33,1.07,1.81.52.43,1.17.66,1.84.64.68,0,1.34-.23,1.87-.67.52-.41.83-1.04.82-1.71.02-.68-.29-1.32-.82-1.73-.6-.46-1.34-.7-2.1-.67h-1.31v-2.23h1.17c.66.02,1.3-.18,1.82-.58.49-.38.77-.98.74-1.6.02-.56-.23-1.09-.67-1.44-.47-.37-1.05-.56-1.64-.54-.57-.03-1.14.16-1.58.53-.38.36-.66.81-.82,1.31l-2.23-.93c.33-.88.9-1.65,1.64-2.22.87-.67,1.95-1.01,3.05-.96.85-.01,1.7.17,2.47.53.69.32,1.29.83,1.71,1.46.41.63.63,1.36.62,2.11.02.71-.18,1.42-.57,2.01-.38.54-.89.98-1.48,1.27v.13c.72.3,1.35.79,1.81,1.41.46.66.69,1.46.66,2.27.01.84-.22,1.65-.67,2.36-.46.71-1.1,1.27-1.86,1.64-.83.4-1.74.61-2.65.59-1.12,0-2.2-.35-3.12-.99Z"/>
            <path class="cls-14" d="m421.7,24.44l-2.47,1.79-1.23-1.88,4.44-3.2h1.69v15.1h-2.47l.03-11.8Z"/>
            <polygon class="cls-25" points="440.19 41.6 428.69 53.11 427.86 47.35 428.69 41.6 434.44 39.96 440.19 41.6"/>
            <polygon class="cls-28" points="402.75 41.6 399.94 47.35 402.8 53.11 428.69 53.11 428.69 41.6 402.75 41.6"/>
            <path class="cls-14" d="m394.77,3.8c-2.15,0-3.89,1.75-3.89,3.9v33.91l5.75,2.47,6.16-2.47V15.31h25.88l2.47-6.16-2.47-5.34h-33.91Z"/>
            <path class="cls-30" d="m390.89,41.6v7.61c0,2.15,1.74,3.89,3.89,3.9h8.03v-11.5h-11.92Z"/>
            <polygon class="cls-24" points="428.69 15.31 428.69 41.6 440.19 41.6 440.19 15.31 434.44 12.71 428.69 15.31"/>
            <path class="cls-29" d="m440.19,15.31v-7.61c0-2.15-1.74-3.9-3.9-3.9h-7.61v11.5h11.5Z"/>
          </g>
        </g>
      </g>
      <g id="Layer_2-4" data-name="Layer 2">
        <g id="Layer_2-2-3" data-name="Layer 2-2">
          <path class="cls-10" d="m291.47,68.24l3.29,9.26,3.29-9.26h3.46v12.77h-2.67v-3.49l.26-6.02-3.45,9.52h-1.81l-3.43-9.51.26,6.02v3.49h-2.63v-12.77h3.43Z"/>
          <path class="cls-10" d="m307.97,81.19c-1.26.05-2.49-.41-3.4-1.28-.89-.9-1.37-2.14-1.31-3.41v-.25c-.02-.88.17-1.76.55-2.56.34-.73.88-1.34,1.57-1.76.7-.42,1.5-.63,2.31-.61,1.15-.06,2.27.39,3.07,1.22.8.98,1.2,2.23,1.12,3.49v1.04h-6.05c.06.57.32,1.1.75,1.49.43.38.99.59,1.56.57.89.04,1.75-.36,2.29-1.07l1.21,1.41c-.39.55-.93.99-1.54,1.26-.67.3-1.39.46-2.12.45Zm-.29-7.8c-.46-.02-.91.17-1.22.52-.34.42-.54.93-.58,1.46h3.53v-.21c.02-.48-.15-.95-.46-1.31-.34-.33-.8-.5-1.27-.47Z"/>
          <path class="cls-10" d="m317.68,81.19c-1.26.05-2.48-.41-3.39-1.28-.9-.9-1.38-2.14-1.31-3.41v-.25c-.01-.88.18-1.76.56-2.56.33-.73.88-1.34,1.56-1.76.7-.4,1.49-.61,2.3-.58,1.15-.06,2.27.39,3.07,1.22.8.97,1.2,2.21,1.13,3.47v1.04h-6.04c.06.57.32,1.1.74,1.49.43.38.99.59,1.57.57.89.04,1.74-.36,2.28-1.07l1.25,1.4c-.38.56-.91,1-1.53,1.27-.68.31-1.43.47-2.18.45Zm-.29-7.8c-.46-.02-.91.17-1.22.52-.34.41-.55.93-.6,1.46h3.53v-.21c.02-.48-.14-.94-.45-1.31-.33-.33-.79-.5-1.25-.47Z"/>
          <path class="cls-10" d="m326.06,69.19v2.33h1.64v1.86h-1.64v4.74c-.02.27.05.53.2.76.22.17.5.25.77.22.25,0,.5-.02.75-.06v1.93c-.5.15-1.02.22-1.54.22-1.77,0-2.68-.9-2.72-2.69v-5.13h-1.38v-1.86h1.38v-2.33h2.54Z"/>
          <polygon class="cls-30" points="311.84 28.38 317.69 35.06 325.54 40.07 326.91 28.42 325.54 17.03 317.53 21.44 311.84 28.38"/>
          <path class="cls-29" d="m277.95,39v9.93c0,2.27,1.84,4.11,4.11,4.11h9.93l2.05-7.5-2.05-6.53-6.81-2.05-7.22,2.05Z"/>
          <polygon class="cls-25" points="291.98 3.73 277.95 17.76 285.17 19.82 291.98 17.76 294 11.32 291.98 3.73"/>
          <rect class="cls-14" x="277.95" y="17.76" width="14.04" height="21.23"/>
          <path class="cls-28" d="m334.51,9.67l-8.97,7.4v23.01l9.04,7.4c.91.68,2.2.5,2.88-.41.27-.36.41-.79.41-1.23V11.26c0-1.13-.91-2.06-2.05-2.06-.48,0-.95.16-1.32.47Z"/>
          <path class="cls-28" d="m311.84,28.38h0v10.62h-19.86v14.04h29.45c2.27,0,4.11-1.84,4.11-4.11v-8.85l-13.7-11.69Z"/>
          <path class="cls-24" d="m321.43,3.73h-29.45v14.04h19.86v10.62l13.7-11.35V7.84c0-2.27-1.84-4.11-4.11-4.11Z"/>
        </g>
      </g>
      <g id="Layer_2-5" data-name="Layer 2">
        <g id="Layer_2-2-4" data-name="Layer 2-2">
          <path class="cls-10" d="m1.64,80.99v-12.77h3.89c1.05-.02,2.09.24,3.01.76.89.51,1.61,1.26,2.08,2.16.51.98.77,2.07.75,3.18v.61c.02,1.1-.23,2.19-.74,3.17-.47.9-1.18,1.64-2.06,2.14-.92.52-1.95.78-3.01.77l-3.91-.02Zm2.63-10.64v8.53h1.23c.9.05,1.78-.32,2.36-1.01.59-.84.88-1.86.82-2.88v-.67c.07-1.05-.22-2.09-.82-2.96-.58-.69-1.46-1.06-2.36-1h-1.23Z"/>
          <path class="cls-10" d="m12.71,76.16c-.02-.87.17-1.73.54-2.51.33-.71.87-1.31,1.54-1.72.72-.41,1.54-.62,2.37-.6,1.16-.05,2.29.38,3.14,1.18.84.85,1.32,1.99,1.36,3.19v.65c.08,1.28-.34,2.54-1.17,3.52-.85.9-2.05,1.38-3.29,1.31-1.22.05-2.39-.43-3.23-1.31-.86-.99-1.29-2.27-1.22-3.57l-.03-.12Zm2.53.18c-.04.73.13,1.45.51,2.07.62.8,1.77.95,2.57.33.12-.1.23-.21.33-.33.4-.69.58-1.48.52-2.27.04-.72-.14-1.43-.52-2.04-.33-.48-.88-.75-1.46-.73-.57-.02-1.12.25-1.44.73-.39.68-.56,1.46-.51,2.24Z"/>
          <path class="cls-10" d="m27.21,79.13c.42.02.82-.12,1.14-.39.29-.26.46-.63.46-1.03h2.42c0,.63-.19,1.24-.53,1.77-.35.54-.84.97-1.42,1.24-.62.3-1.29.45-1.98.44-1.23.07-2.42-.41-3.25-1.31-.83-1-1.25-2.28-1.18-3.57v-.16c-.07-1.27.35-2.52,1.17-3.5.82-.89,2-1.36,3.2-1.31,1.05-.05,2.07.31,2.85,1.01.74.7,1.16,1.69,1.13,2.71h-2.42c0-.44-.16-.87-.46-1.2-.3-.32-.72-.49-1.16-.47-.53-.03-1.03.22-1.34.65-.35.64-.51,1.37-.45,2.1v.26c-.06.73.1,1.47.45,2.11.31.43.82.68,1.36.64Z"/>
          <path class="cls-10" d="m37.8,78.37c0-.31-.18-.59-.46-.73-.46-.23-.96-.39-1.47-.48-2.26-.48-3.39-1.44-3.39-2.88,0-.83.38-1.61,1.04-2.1.79-.59,1.76-.88,2.74-.82,1.03-.06,2.04.23,2.88.82.7.52,1.1,1.34,1.08,2.21h-2.56c0-.33-.12-.66-.35-.9-.62-.45-1.44-.47-2.09-.07-.23.18-.36.45-.35.74,0,.28.15.54.4.67.42.23.88.38,1.35.45.54.1,1.07.24,1.59.42,1.19.27,2.03,1.33,2.04,2.56.02.85-.4,1.64-1.11,2.1-.85.57-1.85.86-2.88.82-.73.01-1.45-.13-2.12-.42-.58-.26-1.08-.66-1.45-1.17-.35-.48-.53-1.05-.53-1.64h2.41c-.02.41.15.81.47,1.08.36.26.8.38,1.24.36.39.02.77-.07,1.1-.28.25-.16.41-.45.4-.75Z"/>
          <rect class="cls-22" x="8.5" y="31.21" width="24.84" height="4.58"/>
          <rect class="cls-22" x="8.5" y="39.05" width="18.3" height="4.58"/>
          <polygon class="cls-29" points="27.45 16.18 34.19 16.5 41.83 16.18 27.45 1.79 27.13 10.57 27.45 16.18"/>
          <rect class="cls-22" x="8.5" y="23.37" width="24.84" height="4.58"/>
          <path class="cls-14" d="m27.45,16.18V1.79H3.92C1.76,1.8,0,3.55,0,5.71v49.68c0,2.16,1.76,3.92,3.92,3.92h34c2.16,0,3.92-1.76,3.92-3.92V16.18h-14.38Zm-1.31,26.8H9.15v-3.29h16.99v3.29Zm6.57-7.84H9.15v-3.29h23.53l.04,3.29Zm0-7.85H9.15v-3.29h23.53l.04,3.29Z"/>
        </g>
      </g>
      <g id="Layer_2-6" data-name="Layer 2">
        <g id="Layer_2-2-5" data-name="Layer 2-2">
          <path class="cls-10" d="m84.14,81.02v-12.77h3.95c1.05-.02,2.09.24,3.02.76.89.5,1.6,1.26,2.07,2.16.51.98.77,2.07.75,3.18v.58c.02,1.1-.23,2.19-.73,3.17-.47.92-1.19,1.68-2.09,2.19-.92.52-1.95.78-3.01.77l-3.96-.04Zm2.63-10.68v8.57h1.27c.9.06,1.78-.32,2.36-1.01.59-.84.88-1.86.82-2.88v-.67c.07-1.05-.22-2.09-.82-2.95-.57-.68-1.42-1.05-2.31-1.01l-1.32-.04Z"/>
          <path class="cls-10" d="m100.99,73.9c-.3-.04-.61-.06-.91-.07-.77-.1-1.53.28-1.89.97v6.21h-2.53v-9.49h2.39l.07,1.13c.39-.81,1.22-1.31,2.11-1.31.28,0,.56.03.82.12l-.07,2.43Z"/>
          <path class="cls-10" d="m102.19,69.07c-.01-.35.12-.69.38-.94.28-.26.66-.39,1.04-.37.38-.02.75.12,1.04.37.52.52.52,1.37,0,1.89-.28.25-.65.38-1.03.36-.38.02-.75-.11-1.04-.36-.26-.25-.4-.59-.39-.95Zm2.7,11.95h-2.55v-9.49h2.55v9.49Z"/>
          <path class="cls-10" d="m110.52,77.92l1.76-6.39h2.65l-3.2,9.49h-2.42l-3.2-9.49h2.65l1.77,6.39Z"/>
          <path class="cls-10" d="m120.31,81.19c-1.26.05-2.49-.41-3.4-1.27-.89-.91-1.37-2.15-1.31-3.42v-.25c-.01-.88.18-1.75.55-2.54.33-.72.86-1.33,1.53-1.75.7-.41,1.5-.62,2.32-.61,1.15-.06,2.27.39,3.07,1.22.82.97,1.25,2.21,1.19,3.48v1.04h-6.09c.06.57.32,1.1.75,1.49.43.38.99.59,1.56.57.89.04,1.75-.36,2.29-1.06l1.24,1.37c-.39.55-.93.99-1.54,1.26-.67.31-1.41.47-2.15.47Zm-.29-7.79c-.46-.02-.91.17-1.22.51-.34.41-.55.91-.6,1.45h3.53v-.21c.02-.48-.15-.95-.46-1.31-.33-.31-.78-.48-1.24-.44Z"/>
          <path class="cls-23" d="m114.39,42.3l3.19,7.48,5.49,7.56h0c.87-.5,1.59-1.21,2.09-2.08l5.83-10.12c.5-.86.76-1.84.76-2.84l-8.97-.95-8.4.95Z"/>
          <path class="cls-30" d="m112.86,9.56c-.86-.5-1.84-.76-2.84-.76h-11.69c-1,0-1.98.27-2.84.76h0l3.29,7.68,5.35,7.31v.04h0l5.4-7.4,3.29-7.64h.05Z"/>
          <path class="cls-29" d="m93.95,42.3l-8.95-1.27-8.41,1.27c0,1,.26,1.98.76,2.84l5.82,10.12c.5.86,1.22,1.58,2.09,2.08l5.4-7.17,3.29-7.87h.02Z"/>
          <path class="cls-24" d="m122.97,25.54l-8.03-13.9c-.5-.86-1.22-1.58-2.08-2.08l-8.69,15.04,10.21,17.7h17.37c0-1-.26-1.98-.76-2.84l-8.03-13.91Z"/>
          <path class="cls-14" d="m114.39,42.3h-20.44l-8.68,15.04c.86.5,1.83.76,2.82.76h32.14c1,0,1.98-.26,2.84-.76l-8.69-15.04Z"/>
          <path class="cls-14" d="m114.39,42.3h-20.44l-8.68,15.04c.86.5,1.83.76,2.82.76h32.14c1,0,1.98-.26,2.84-.76l-8.69-15.04Z"/>
          <path class="cls-28" d="m104.18,24.6l-8.69-15.04c-.86.5-1.58,1.21-2.08,2.07l-16.07,27.83c-.49.86-.75,1.84-.76,2.84h17.36l10.22-17.7Z"/>
        </g>
      </g>
      <g id="Layer_2-7" data-name="Layer 2">
        <g id="Layer_2-2-6" data-name="Layer 2-2">
          <path class="cls-10" d="m169.98,68.59l3.29,9.33,3.29-9.33h3.48v12.85h-2.65v-3.51l.27-6.06-3.48,9.57h-1.82l-3.46-9.57.26,6.06v3.51h-2.65v-12.85h3.46Z"/>
          <path class="cls-10" d="m186.58,81.62c-1.27.05-2.51-.43-3.43-1.31-.9-.91-1.38-2.16-1.31-3.43v-.25c-.02-.89.17-1.77.56-2.57.34-.72.89-1.33,1.57-1.75.7-.41,1.51-.62,2.33-.61,1.16-.06,2.29.39,3.09,1.23.8.98,1.21,2.23,1.13,3.5v1.04h-6.08c.06.57.32,1.11.74,1.5.43.38,1,.59,1.58.57.9.04,1.75-.36,2.3-1.07l1.3,1.42c-.41.55-.96.97-1.59,1.23-.68.32-1.42.49-2.17.49Zm-.3-7.85c-.46-.01-.91.17-1.23.51-.34.42-.55.94-.6,1.48h3.55v-.21c.02-.48-.15-.95-.46-1.32-.33-.32-.79-.49-1.26-.46Z"/>
          <path class="cls-10" d="m194.31,71.89l.07,1.1c.66-.84,1.68-1.31,2.74-1.27.85-.07,1.68.26,2.26.89.56.77.83,1.71.76,2.66v6.17h-2.56v-6.06c.04-.42-.09-.84-.35-1.18-.31-.29-.72-.43-1.14-.41-.68-.04-1.32.32-1.64.92v6.73h-2.56v-9.55h2.41Z"/>
          <path class="cls-10" d="m207.26,78.8c0-.32-.18-.6-.47-.74-.47-.23-.97-.39-1.49-.48-2.27-.48-3.41-1.45-3.41-2.89,0-.84.39-1.63,1.06-2.13.8-.59,1.77-.88,2.76-.82,1.03-.07,2.06.22,2.9.82.71.52,1.11,1.34,1.09,2.22h-2.55c0-.34-.12-.66-.35-.9-.31-.26-.71-.39-1.11-.35-.35-.02-.71.08-.99.29-.24.17-.38.45-.39.74,0,.28.16.54.4.68.42.22.88.38,1.36.45.56.1,1.11.24,1.64.43,1.18.29,2.01,1.34,2.01,2.55.02.85-.4,1.65-1.12,2.12-.85.57-1.87.86-2.89.82-.73.01-1.46-.13-2.14-.43-.58-.26-1.09-.66-1.46-1.18-.35-.48-.53-1.05-.53-1.64h2.42c-.02.44.17.85.51,1.13.36.26.8.39,1.25.36.39.02.78-.07,1.11-.28.25-.17.39-.46.38-.76Z"/>
          <path class="cls-10" d="m216.91,81.44c-.13-.26-.22-.54-.25-.82-.61.69-1.5,1.07-2.42,1.04-.85.03-1.68-.27-2.33-.82-.6-.51-.94-1.26-.92-2.05-.04-.92.38-1.8,1.13-2.33.98-.61,2.13-.9,3.29-.82h1.18v-.54c.02-.38-.1-.76-.35-1.06-.28-.29-.67-.44-1.07-.4-.36-.02-.72.09-1.01.31-.24.2-.38.51-.37.82h-2.55c0-.55.15-1.09.47-1.54.37-.5.88-.9,1.45-1.13.67-.27,1.38-.41,2.1-.39,1.01-.05,2,.26,2.8.88.7.62,1.08,1.53,1.04,2.47v4.11c-.03.7.1,1.41.38,2.05v.15l-2.57.09Zm-2.11-1.77c.36,0,.72-.08,1.04-.25.29-.15.54-.39.71-.67v-1.64h-.95c-1.28,0-1.96.44-2.04,1.32v.15c-.02.31.11.61.34.82.26.2.58.29.9.27Z"/>
          <path class="cls-10" d="m223.77,71.89v10.06c.06.9-.23,1.78-.82,2.47-.65.62-1.52.94-2.42.88-.43,0-.85-.05-1.27-.16v-2.01c.27.05.55.07.82.07.77,0,1.16-.41,1.16-1.22v-10.09h2.52Zm-2.76-2.47c0-.36.13-.7.39-.95.28-.26.66-.39,1.04-.37.39-.02.76.11,1.05.37.25.25.39.59.38.95.01.36-.13.71-.39.95-.6.49-1.47.49-2.07,0-.27-.25-.41-.6-.39-.96h0Z"/>
          <path class="cls-10" d="m230.16,81.62c-1.27.04-2.51-.43-3.42-1.31-.9-.91-1.38-2.16-1.32-3.43v-.25c-.02-.89.18-1.77.56-2.57.34-.72.89-1.33,1.58-1.75.7-.42,1.51-.63,2.33-.61,1.16-.06,2.28.39,3.08,1.23.8.98,1.21,2.23,1.13,3.5v1.04h-6.08c.06.58.32,1.11.75,1.5.43.39,1,.59,1.58.57.89.04,1.75-.36,2.3-1.07l1.27,1.42c-.4.55-.94.97-1.57,1.23-.68.32-1.42.49-2.17.49Zm-.29-7.85c-.46-.01-.91.17-1.23.51-.35.42-.56.94-.61,1.48h3.55v-.21c.02-.48-.14-.96-.46-1.32-.33-.32-.79-.49-1.25-.46Z"/>
          <path class="cls-10" d="m240.71,78.8c0-.32-.18-.6-.47-.74-.47-.23-.97-.39-1.49-.48-2.27-.48-3.4-1.45-3.4-2.89,0-.84.38-1.63,1.05-2.13.8-.59,1.77-.88,2.76-.82,1.03-.06,2.06.23,2.91.82.7.52,1.1,1.35,1.08,2.22h-2.55c.01-.34-.12-.66-.35-.9-.3-.26-.7-.39-1.1-.35-.36-.02-.71.08-1,.29-.23.18-.36.46-.35.75,0,.28.16.54.4.68.42.22.88.38,1.36.45.56.1,1.11.24,1.64.43,1.16.3,1.98,1.34,1.99,2.54,0,.85-.41,1.65-1.13,2.12-.85.57-1.87.86-2.89.82-.73.01-1.46-.14-2.14-.43-.58-.26-1.08-.66-1.45-1.18-.35-.48-.54-1.05-.53-1.64h2.42c-.02.44.18.86.53,1.13.36.26.8.38,1.25.36.39.03.78-.07,1.11-.28.25-.17.38-.47.35-.76Z"/>
          <g id="foreground">
            <path class="cls-30" d="m217.2,40.8l1.03-15.37c0-1.98-1.6-3.58-3.58-3.58h0l-22.04.51-.51,15.88c0,1.98,1.6,3.58,3.58,3.58,0,0,0,0,0,0l21.51-1.02Z"/>
            <path class="cls-28" d="m196.2,40.8h21v6.64c0,1.98-1.6,3.59-3.58,3.59h-21.01l-7.31,7.67c-.69.7-1.82.7-2.52,0-.34-.34-.53-.79-.53-1.27l.1-31.53c0-1.98,1.61-3.57,3.59-3.57h6.66v14.87c0,1.98,1.61,3.59,3.59,3.59Z"/>
            <path class="cls-11" d="m192.61,22.35h21.01c1.98,0,3.58,1.6,3.58,3.58v14.87h6.66c1.98,0,3.58-1.61,3.58-3.59V15.69c0-1.98-1.6-3.58-3.58-3.58h0s-27.67,0-27.67,0c-1.98,0-3.59,1.6-3.59,3.58v6.66Z"/>
          </g>
        </g>
      </g>
      <g id="Layer_2-8" data-name="Layer 2">
        <g id="Layer_2-2-7" data-name="Layer 2-2">
          <path class="cls-10" d="m410.57,184.15l-1.38,1.51v3.67h-2.65v-12.88h2.65v5.83l1.17-1.6,3.29-4.22h3.29l-4.6,5.71,4.69,7.14h-3.15l-3.3-5.15Z"/>
          <path class="cls-10" d="m422.25,189.47c-1.27.05-2.5-.41-3.42-1.28-.9-.91-1.38-2.16-1.32-3.43v-.25c-.01-.89.18-1.77.56-2.58.34-.72.89-1.33,1.58-1.74.7-.42,1.51-.63,2.33-.62,1.17-.07,2.31.39,3.11,1.24.8.98,1.21,2.23,1.13,3.5v1.04h-6.08c.05.57.32,1.11.75,1.5.43.39,1,.59,1.58.57.9.04,1.75-.36,2.3-1.07l1.25,1.41c-.39.55-.93.99-1.55,1.27-.69.31-1.44.47-2.19.45Zm-.29-7.85c-.47-.02-.92.17-1.23.52-.34.42-.54.93-.58,1.47h3.55v-.21c.02-.48-.14-.95-.46-1.31-.34-.33-.8-.5-1.27-.47Z"/>
          <path class="cls-10" d="m432.02,189.47c-1.27.05-2.5-.41-3.42-1.28-.9-.91-1.38-2.16-1.32-3.43v-.25c-.01-.89.18-1.77.56-2.58.34-.72.89-1.33,1.58-1.74.7-.42,1.51-.63,2.33-.62,1.16-.06,2.29.39,3.08,1.24.81.98,1.21,2.23,1.13,3.5v1.04h-6.08c.06.57.32,1.11.75,1.5.43.39,1,.59,1.58.57.9.04,1.75-.36,2.3-1.07l1.27,1.41c-.4.55-.93.99-1.55,1.27-.69.31-1.43.46-2.19.45Zm-.29-7.85c-.47-.02-.92.17-1.23.52-.35.42-.56.93-.61,1.47h3.55v-.21c.02-.48-.14-.95-.46-1.31-.33-.33-.79-.5-1.25-.47Z"/>
          <path class="cls-10" d="m445.99,184.62c.06,1.25-.3,2.48-1,3.51-.61.86-1.61,1.37-2.66,1.35-.89.04-1.75-.33-2.34-1v4.5h-2.59v-13.22h2.36l.11.93c.59-.73,1.48-1.14,2.42-1.11,1.08-.04,2.1.45,2.75,1.31.71,1.06,1.05,2.33.98,3.6l-.02.14Zm-2.56-.19c.04-.72-.12-1.43-.47-2.05-.29-.47-.82-.75-1.37-.72-.68-.07-1.34.29-1.64.91v3.92c.31.62.95.99,1.64.95,1.23,0,1.84-1,1.84-3Z"/>
          <rect class="cls-22" x="421.37" y="148.3" width="9.8" height="3.92"/>
          <path class="cls-22" d="m426.26,129.02c-5.08-.02-9.22,4.09-9.23,9.17-.01,3.17,1.62,6.13,4.3,7.82h9.84c4.3-2.71,5.6-8.39,2.89-12.69-1.69-2.69-4.65-4.31-7.82-4.3h.02Z"/>
          <path class="cls-24" d="m440,123.14l-7.19,1.31,1.31-7.19-1.31-7.19h-23.53c-2.16,0-3.92,1.76-3.92,3.92v49.68c0,2.16,1.76,3.92,3.92,3.92h34c2.16,0,3.92-1.76,3.92-3.92v-39.22l-7.19-1.31Zm-9.17,28.76h-9.13v-3.29h9.13v3.29Zm0-6.5h-9.04c-3.98-2.5-5.18-7.75-2.69-11.72,2.5-3.98,7.75-5.18,11.72-2.69,3.98,2.5,5.18,7.75,2.69,11.72-.68,1.09-1.6,2-2.69,2.69Z"/>
          <polygon class="cls-21" points="432.81 110.06 447.19 124.44 432.81 124.44 432.81 110.06"/>
        </g>
      </g>
      <g id="Layer_2-9" data-name="Layer 2">
        <g id="Layer_2-2-8" data-name="Layer 2-2">
          <path class="cls-10" d="m49.7,184.29h-5.05v5.22h-2.63v-12.75h8.32v2.13h-5.69v3.29h5.05v2.11Z"/>
          <path class="cls-10" d="m51.12,184.68c-.02-.87.17-1.74.55-2.52.34-.71.88-1.31,1.56-1.71.72-.41,1.54-.63,2.37-.61,1.16-.05,2.29.38,3.13,1.18.85.85,1.33,2,1.36,3.2v.65c.07,1.28-.37,2.54-1.22,3.5-.85.9-2.05,1.39-3.29,1.32-1.23.06-2.43-.42-3.29-1.31-.86-.99-1.29-2.28-1.22-3.58l.03-.11Zm2.54.17c-.05.73.13,1.45.51,2.07.33.48.88.75,1.45.71.57.03,1.11-.24,1.44-.71.4-.68.58-1.47.52-2.26.04-.72-.14-1.44-.52-2.05-.33-.48-.88-.75-1.45-.73-.57-.03-1.12.25-1.44.72-.39.68-.57,1.46-.51,2.24Z"/>
          <path class="cls-10" d="m67,182.39c-.3-.04-.61-.07-.91-.07-.78-.1-1.53.31-1.88,1.01v6.21h-2.54v-9.5h2.4l.07,1.13c.4-.8,1.22-1.31,2.12-1.31.28,0,.56.04.82.12l-.07,2.41Z"/>
          <path class="cls-10" d="m70.6,180.05l.08,1.06c.66-.82,1.67-1.28,2.73-1.24,1.06-.09,2.07.49,2.51,1.45.63-.95,1.71-1.5,2.85-1.45.86-.06,1.71.27,2.3.9.56.79.82,1.74.75,2.7v6.06h-2.54v-6.09c.04-.41-.06-.83-.29-1.18-.29-.29-.7-.42-1.11-.38-.71-.04-1.36.41-1.58,1.09v6.52h-2.56v-6.05c.04-.42-.08-.84-.32-1.19-.3-.28-.7-.41-1.11-.37-.64-.03-1.24.32-1.54.9v6.71h-2.56v-9.46h2.37Z"/>
          <path class="cls-10" d="m88.92,186.89c0-.31-.18-.6-.46-.74-.47-.23-.97-.39-1.48-.48-2.26-.47-3.39-1.43-3.39-2.88,0-.83.38-1.61,1.04-2.11.79-.58,1.76-.87,2.74-.82,1.03-.06,2.05.23,2.89.82.69.53,1.08,1.35,1.05,2.22h-2.47c.01-.33-.11-.66-.35-.9-.3-.26-.69-.39-1.09-.36-.36-.03-.73.08-1.02.3-.22.18-.35.45-.35.73,0,.26.13.51.35.67.42.22.88.38,1.35.44.54.1,1.07.25,1.59.43,1.18.28,2.01,1.34,2.01,2.56.01.84-.41,1.63-1.12,2.1-.85.57-1.85.86-2.88.82-.73.02-1.45-.13-2.12-.43-.58-.25-1.08-.65-1.45-1.17-.34-.46-.53-1.02-.53-1.59h2.4c0,.4.19.78.5,1.03.36.26.8.39,1.24.36.39.03.77-.07,1.1-.27.26-.15.42-.43.41-.72Z"/>
          <polygon class="cls-12" points="73.24 108.56 87.62 122.94 80.43 123.6 73.24 122.94 72.58 115.75 73.24 108.56"/>
          <rect class="cls-22" x="61.8" y="130.46" width="16.99" height="3.92"/>
          <circle class="cls-22" cx="56.89" cy="132.42" r="2.28"/>
          <rect class="cls-22" x="61.8" y="138.3" width="16.99" height="3.92"/>
          <circle class="cls-22" cx="56.89" cy="140.26" r="2.28"/>
          <rect class="cls-22" x="61.8" y="146.15" width="16.99" height="3.92"/>
          <circle class="cls-22" cx="56.89" cy="148.11" r="2.61"/>
          <path class="cls-13" d="m73.25,122.94v-14.38h-23.54c-2.16,0-3.92,1.76-3.92,3.92v49.68c0,2.16,1.76,3.92,3.92,3.92h34c2.16,0,3.92-1.76,3.92-3.92v-39.22h-14.37Zm-16.34,27.12c-1.08,0-1.96-.88-1.96-1.96,0-1.08.88-1.96,1.96-1.96,1.08,0,1.96.88,1.96,1.96,0,0,0,0,0,0,0,1.08-.87,1.96-1.95,1.96,0,0-.02,0-.02,0h0Zm0-7.84c-1.08,0-1.96-.88-1.96-1.96,0-1.08.88-1.96,1.96-1.96s1.96.88,1.96,1.96h0c.02,1.08-.83,1.97-1.91,2-.02,0-.04,0-.06,0v-.03Zm0-7.85c-1.08,0-1.97-.87-1.97-1.96,0-1.08.87-1.97,1.96-1.97,1.08,0,1.96.87,1.97,1.95.02,1.08-.84,1.97-1.92,1.99-.01,0-.03,0-.04,0h0Zm21.56,15.37h-16.34v-3.29h16.34v3.29Zm0-7.84h-16.34v-3.29h16.34v3.29Zm0-7.85h-16.34v-3.29h16.34v3.29Z"/>
        </g>
      </g>
      <g id="Layer_2-10" data-name="Layer 2">
        <g id="Layer_2-2-9" data-name="Layer 2-2">
          <path class="cls-10" d="m320.04,186.08c.02-.45-.18-.88-.53-1.16-.59-.37-1.23-.64-1.91-.82-.75-.23-1.48-.52-2.18-.88-1.46-.81-2.19-1.87-2.19-3.2,0-.67.2-1.32.59-1.87.43-.57,1.01-1.01,1.68-1.27.78-.32,1.62-.47,2.47-.46.85-.01,1.69.16,2.47.5.67.3,1.24.79,1.64,1.41.41.61.62,1.33.62,2.06h-2.65c.03-.52-.18-1.02-.56-1.37-.44-.35-1-.53-1.56-.49-.54-.03-1.07.11-1.51.41-.35.25-.55.66-.53,1.08.01.43.25.83.62,1.04.58.36,1.21.64,1.87.82,1.21.29,2.33.85,3.29,1.64.67.64,1.05,1.54,1.04,2.47.04,1.03-.43,2.01-1.27,2.62-.99.7-2.18,1.05-3.39,1-.94.02-1.87-.17-2.74-.54-.74-.32-1.37-.84-1.82-1.51-.43-.64-.65-1.39-.64-2.16h2.65c0,1.41.82,2.13,2.55,2.13.52.03,1.03-.11,1.47-.39.35-.24.55-.64.53-1.07Z"/>
          <path class="cls-10" d="m326.8,180.94c.62-.78,1.56-1.23,2.56-1.22,2.07,0,3.12,1.21,3.15,3.61v6.12h-2.55v-6.05c.04-.44-.09-.87-.35-1.22-.32-.28-.74-.41-1.16-.37-.66-.06-1.3.26-1.64.82v6.79h-2.55v-13.53h2.55v5.05Z"/>
          <path class="cls-10" d="m338.83,189.63c-1.27.05-2.5-.41-3.43-1.28-.9-.91-1.38-2.16-1.31-3.43v-.25c-.02-.89.17-1.77.55-2.58.35-.72.89-1.33,1.58-1.74.7-.42,1.51-.63,2.33-.62,1.17-.05,2.3.42,3.09,1.27.8.99,1.21,2.24,1.13,3.51v1.04h-6.1c.06.57.33,1.1.75,1.5.43.38,1,.59,1.58.57.9.04,1.76-.36,2.3-1.07l1.26,1.41c-.4.55-.93.99-1.54,1.27-.68.29-1.42.43-2.17.41Zm-.3-7.81c-.47,0-.91.18-1.23.52-.35.42-.56.93-.6,1.47h3.55v-.21c.02-.48-.15-.95-.46-1.31-.33-.33-.79-.5-1.26-.47Z"/>
          <path class="cls-10" d="m348.6,189.63c-1.27.05-2.5-.41-3.43-1.28-.9-.91-1.38-2.16-1.31-3.43v-.25c-.02-.89.17-1.78.56-2.58.34-.72.89-1.33,1.57-1.74.7-.42,1.51-.63,2.33-.62,1.17-.05,2.3.42,3.09,1.27.8.99,1.21,2.24,1.13,3.51v1.04h-6.08c.06.57.32,1.1.74,1.5.43.38,1,.59,1.58.57.9.04,1.76-.36,2.31-1.07l1.25,1.41c-.4.55-.93.99-1.55,1.27-.68.29-1.42.43-2.17.41Zm-.3-7.81c-.47,0-.91.18-1.23.52-.34.42-.55.93-.6,1.47h3.55v-.21c.02-.48-.15-.95-.46-1.31-.33-.33-.79-.5-1.26-.47Z"/>
          <path class="cls-10" d="m357.03,177.56v2.35h1.64v1.87h-1.64v4.77c-.02.27.05.54.2.76.22.2.51.3.8.27.25,0,.5-.02.75-.07v1.93c-.51.14-1.04.21-1.57.19-1.79,0-2.7-.9-2.74-2.7v-5.15h-1.37v-1.87h1.4v-2.35h2.54Z"/>
          <path class="cls-10" d="m365.26,186.82c0-.32-.18-.6-.47-.74-.47-.23-.97-.4-1.49-.48-2.27-.48-3.4-1.44-3.4-2.89,0-.83.39-1.62,1.05-2.12.8-.58,1.77-.87,2.76-.82,1.03-.06,2.06.23,2.91.82.7.52,1.1,1.35,1.08,2.23h-2.55c.01-.34-.12-.66-.35-.9-.3-.26-.7-.39-1.1-.36-.36-.02-.71.08-1,.3-.23.18-.36.45-.35.74,0,.28.16.54.4.68.42.23.88.38,1.36.45.56.1,1.11.25,1.64.43,1.19.3,2.01,1.39,1.99,2.61.01.85-.41,1.65-1.13,2.11-.85.58-1.87.86-2.89.82-.73.01-1.46-.13-2.14-.43-.58-.25-1.08-.66-1.45-1.18-.35-.47-.54-1.05-.53-1.64h2.47c0,.41.18.79.5,1.04.36.24.79.36,1.22.34.38.04.77-.05,1.1-.25.26-.16.4-.45.38-.76Z"/>
          <path class="cls-28" d="m357.28,167.03h-33.99c-2.15-.02-3.88-1.77-3.89-3.92v-49.68c0-2.15,1.74-3.9,3.89-3.92h23.53l14.38,14.38v39.22c0,2.16-1.75,3.92-3.92,3.92Z"/>
          <polygon class="cls-30" points="346.82 109.51 361.2 123.89 346.82 123.89 346.82 109.51"/>
          <path class="cls-22" d="m350.09,131.73h-22.88v18.95h26.15v-18.95h-3.27Zm-19.61,3.25h8.17v4.58h-8.17v-4.58Zm0,12.42v-4.56h8.17v4.58l-8.17-.02Zm19.61,0h-8.17v-4.56h8.17v4.56Zm0-7.85h-8.17v-4.58h8.17v4.58Z"/>
        </g>
      </g>
      <g id="Layer_2-11" data-name="Layer 2">
        <g id="Layer_2-2-10" data-name="Layer 2-2">
          <path class="cls-10" d="m233.99,186.16c.03-.44-.17-.87-.53-1.14-.59-.37-1.23-.65-1.9-.82-.74-.23-1.47-.52-2.16-.87-1.29-.54-2.15-1.79-2.18-3.19,0-.66.2-1.31.58-1.85.42-.57.99-1.01,1.64-1.27.78-.32,1.62-.47,2.47-.46.85-.02,1.69.15,2.47.5.67.3,1.24.78,1.64,1.4.4.61.6,1.33.59,2.05h-2.62c.03-.51-.17-1.02-.55-1.36-.44-.35-.99-.53-1.55-.49-.53-.03-1.06.11-1.5.41-.34.25-.54.65-.53,1.08.01.43.25.83.63,1.04.57.36,1.19.64,1.84.82,1.21.29,2.33.85,3.29,1.64.68.64,1.05,1.54,1.03,2.47.04,1.02-.43,1.99-1.25,2.6-1,.68-2.19,1.02-3.39.95-.93.02-1.85-.16-2.7-.53-.74-.31-1.37-.82-1.83-1.47-.42-.65-.65-1.4-.63-2.18h2.64c0,1.41.82,2.11,2.53,2.11.52.02,1.03-.12,1.46-.4.34-.24.53-.63.53-1.04Z"/>
          <path class="cls-10" d="m240.92,189.51h-2.54v-13.48h2.54v13.48Z"/>
          <path class="cls-10" d="m242.99,177.57c0-.35.13-.69.39-.94.6-.49,1.47-.49,2.07,0,.26.24.4.58.39.94.01.36-.13.7-.39.95-.6.48-1.45.48-2.05,0-.26-.24-.41-.59-.39-.95Zm2.7,11.95h-2.55v-9.49h2.55v9.49Z"/>
          <path class="cls-10" d="m247.38,184.74c-.07-1.26.28-2.5.99-3.53.61-.89,1.64-1.42,2.72-1.4.88-.02,1.73.36,2.29,1.04v-4.81h2.55v13.48h-2.29l-.12-1.01c-.58.77-1.5,1.21-2.47,1.18-1.06.03-2.07-.46-2.69-1.32-.71-1.07-1.06-2.34-.99-3.62Zm2.53.19c-.04.71.12,1.42.47,2.05.29.46.8.73,1.35.71.7.04,1.35-.35,1.64-.99v-3.8c-.28-.65-.94-1.05-1.64-.99-1.2,0-1.82.99-1.82,2.98v.04Z"/>
          <path class="cls-10" d="m262.26,189.67c-1.25.05-2.47-.41-3.38-1.27-.9-.9-1.38-2.14-1.31-3.41v-.25c-.02-.88.17-1.76.55-2.56.35-.72.9-1.32,1.59-1.73.68-.42,1.47-.65,2.28-.65,1.15-.06,2.27.39,3.07,1.23.8.98,1.2,2.22,1.12,3.48v1.04h-6.04c.06.57.32,1.1.74,1.49.43.38.99.58,1.56.56.89.04,1.75-.36,2.29-1.06l1.25,1.4c-.4.55-.93.98-1.54,1.26-.68.31-1.41.47-2.16.47Zm-.29-7.8c-.46,0-.91.18-1.22.51-.34.42-.55.93-.6,1.46h3.53v-.2c.02-.48-.14-.95-.45-1.31-.34-.32-.79-.48-1.25-.44v-.02Z"/>
          <path class="cls-10" d="m272.74,186.89c0-.31-.18-.6-.46-.74-.47-.23-.97-.39-1.48-.48-2.26-.47-3.39-1.43-3.39-2.88,0-.83.38-1.61,1.04-2.11.78-.6,1.76-.91,2.74-.88,1.03-.06,2.05.23,2.89.82.69.52,1.09,1.34,1.08,2.21h-2.53c.01-.33-.11-.66-.35-.9-.31-.24-.7-.34-1.08-.3-.36-.02-.71.08-.99.3-.23.17-.36.45-.35.73,0,.28.16.54.4.68.42.23.88.38,1.35.44.54.11,1.07.25,1.59.43,1.18.28,2.01,1.34,2.01,2.56,0,.83-.43,1.61-1.13,2.06-.85.57-1.86.86-2.88.82-.73.02-1.45-.13-2.12-.43-.58-.25-1.08-.65-1.45-1.17-.34-.46-.53-1.01-.54-1.58h2.47c0,.4.19.78.5,1.03.36.26.8.39,1.24.36.39.03.77-.07,1.1-.27.22-.17.35-.44.34-.72Z"/>
          <path class="cls-24" d="m268.01,167.48h-33.99c-2.16-.01-3.9-1.76-3.9-3.92v-49.68c0-2.16,1.75-3.91,3.9-3.92h23.53l14.38,14.38v39.22c0,2.17-1.76,3.92-3.93,3.92Z"/>
          <polygon class="cls-21" points="257.56 109.96 271.94 124.34 257.56 124.34 257.56 109.96"/>
          <path class="cls-22" d="m260.82,132.19h-22.88v17.64h26.15v-17.64h-3.27Zm0,14.38h-19.61v-11.13h19.61v11.13Z"/>
        </g>
      </g>
      <g id="Layer_2-12" data-name="Layer 2">
        <g id="Layer_2-2-11" data-name="Layer 2-2">
          <path class="cls-10" d="m147.04,187.87c-.54.61-1.23,1.07-2.01,1.32-.92.32-1.9.48-2.88.47-1.02.02-2.02-.23-2.91-.72-.84-.49-1.51-1.22-1.93-2.1-.47-1.01-.71-2.12-.7-3.24v-.82c-.02-1.13.2-2.25.65-3.29.39-.89,1.03-1.64,1.86-2.14.86-.51,1.85-.76,2.85-.74,1.28-.08,2.54.31,3.55,1.08.88.79,1.42,1.9,1.51,3.08h-2.6c-.05-.63-.33-1.21-.78-1.64-.47-.36-1.05-.54-1.64-.51-.81-.04-1.59.34-2.05,1.01-.53.91-.77,1.95-.71,3v.82c-.07,1.07.2,2.13.76,3.04.53.69,1.37,1.07,2.24,1.02.76.07,1.52-.15,2.11-.62v-2.17h-2.4v-1.94h5.06v5.09Z"/>
          <path class="cls-10" d="m151.35,180.01l.07,1.07c.66-.82,1.67-1.28,2.73-1.24,1.06-.09,2.07.48,2.52,1.45.64-.94,1.71-1.49,2.85-1.45.86-.08,1.72.25,2.31.88.56.78.83,1.74.76,2.7v6.06h-2.56v-6.05c.03-.42-.08-.84-.32-1.18-.3-.28-.71-.41-1.12-.37-.71-.03-1.35.41-1.58,1.08v6.52h-2.52v-6.04c.04-.42-.08-.84-.32-1.19-.3-.28-.7-.41-1.11-.37-.65-.04-1.27.31-1.56.9v6.71h-2.53v-9.47h2.37Z"/>
          <path class="cls-10" d="m170.05,189.48c-.12-.26-.21-.54-.25-.82-.6.68-1.48,1.06-2.39,1.03-.85.02-1.67-.27-2.31-.82-.6-.5-.94-1.25-.92-2.04-.05-.91.38-1.78,1.12-2.32.97-.6,2.1-.88,3.24-.82h1.16v-.54c.02-.38-.1-.76-.34-1.05-.28-.28-.67-.43-1.06-.39-.36-.02-.72.09-1,.3-.24.2-.38.51-.37.82h-2.56c0-.55.18-1.08.51-1.52.37-.49.87-.88,1.44-1.1.67-.27,1.38-.41,2.1-.39,1-.05,1.99.26,2.79.88.7.63,1.07,1.53,1.03,2.47v4.11c-.03.7.1,1.4.38,2.04v.15l-2.55.02Zm-2.1-1.76c.36,0,.72-.08,1.04-.25.3-.14.54-.38.7-.67v-1.64h-.98c-1.27,0-1.94.44-2.02,1.31v.15c-.03.31.1.61.33.82.26.2.58.3.9.28h.03Z"/>
          <path class="cls-10" d="m174.16,177.55c-.01-.35.12-.7.38-.95.29-.26.66-.39,1.04-.36.38-.02.75.11,1.04.36.25.25.38.59.36.95.02.35-.11.69-.35.94-.28.26-.65.39-1.03.37-.38.02-.75-.12-1.04-.37-.26-.24-.41-.58-.4-.94Zm2.7,11.94h-2.55v-9.47h2.55v9.47Z"/>
          <path class="cls-10" d="m181.55,189.48h-2.47v-13.47h2.47v13.47Z"/>
          <path class="cls-20" d="m128.96,125.38v5.48l6.28,6.07,7.4,4.19,1.37-9.21-1.36-8.6-3.83-2.87c-2.72-2.04-6.59-1.49-8.63,1.23-.8,1.07-1.23,2.36-1.23,3.7"/>
          <path class="cls-24" d="m175.51,123.31l-1.36,8.7,1.36,9.1,6.73-3.33,6.97-6.94v-5.48c0-3.4-2.76-6.16-6.16-6.16-1.33,0-2.63.43-3.7,1.23l-3.85,2.87Z"/>
          <path class="cls-14" d="m133.07,164.4h9.58v-23.28l-13.69-10.26v29.43c0,2.27,1.84,4.11,4.11,4.11"/>
          <path class="cls-28" d="m175.51,164.4h9.59c2.27,0,4.11-1.84,4.11-4.11v-29.43l-13.7,10.26v23.28Z"/>
          <polygon class="cls-25" points="159.09 135.65 142.65 123.32 142.65 141.12 159.09 153.45 175.51 141.12 175.51 123.32 159.09 135.65"/>
        </g>
      </g>
      <g>
        <g>
          <path class="cls-10" d="m495.83,72.77c-.07-1.02.16-2.03.67-2.92.42-.69,1.17-1.09,1.97-1.07.65-.05,1.29.15,1.8.56.44.49.69,1.13.69,1.79h2.63c-.07-1.26-.63-2.44-1.56-3.29-1-.82-2.27-1.25-3.56-1.18-.99-.02-1.96.24-2.8.75-.82.52-1.46,1.27-1.86,2.15-.46,1.03-.68,2.16-.65,3.29v.82c-.11,1.65.39,3.28,1.41,4.59.97,1.11,2.4,1.72,3.87,1.64,1.31.06,2.6-.36,3.62-1.18.94-.84,1.49-2.03,1.52-3.29h-2.64c0,.64-.24,1.26-.69,1.73-.51.4-1.16.6-1.82.55-.78.06-1.54-.3-1.98-.95-.48-.93-.7-1.98-.62-3.02v-.97Z"/>
          <rect class="cls-10" x="505.26" y="66.22" width="2.55" height="13.49"/>
          <path class="cls-10" d="m517.58,73.34c.05-.94-.33-1.85-1.04-2.47-.79-.63-1.78-.94-2.79-.89-.72,0-1.43.13-2.09.4-.57.23-1.07.61-1.44,1.1-.33.45-.51.99-.51,1.55h2.54c-.01-.31.12-.62.36-.82.29-.22.64-.33,1-.3.4-.04.79.11,1.07.39.24.3.36.68.34,1.06v.54h-1.17c-1.14-.06-2.26.22-3.23.82-.74.53-1.16,1.41-1.12,2.32-.02.78.32,1.53.91,2.04.64.55,1.46.85,2.31.82.91.03,1.79-.35,2.4-1.03.04.29.13.56.25.82h2.56v-.22c-.28-.64-.4-1.34-.37-2.04v-4.11Zm-2.55,3.68c-.16.29-.4.52-.7.67-.32.16-.68.25-1.04.25v-.02c-.33.02-.65-.09-.9-.3-.22-.2-.34-.48-.34-.78v-.15c.08-.88.76-1.31,2.03-1.31h.94v1.64Z"/>
          <path class="cls-10" d="m525.17,74.38c-.52-.18-1.06-.32-1.6-.43-.48-.06-.95-.2-1.39-.43-.24-.15-.39-.4-.39-.68,0-.28.12-.56.35-.73.29-.21.64-.32.99-.3.4-.03.8.1,1.1.36.23.24.36.56.35.9h2.54c.02-.87-.39-1.69-1.08-2.21-.84-.59-1.86-.88-2.89-.82-.98-.05-1.95.24-2.74.82-.66.5-1.05,1.28-1.05,2.11,0,1.45,1.13,2.41,3.39,2.88.51.09,1.01.25,1.48.48.28.14.46.43.46.74,0,.29-.15.56-.39.72-.33.2-.71.3-1.1.27-.45.03-.89-.1-1.25-.36-.31-.26-.48-.65-.46-1.06h-2.4c-.01.59.17,1.17.53,1.64.37.51.87.92,1.45,1.17.66.3,1.39.44,2.11.43,1.02.04,2.03-.25,2.88-.82.72-.46,1.16-1.26,1.14-2.12,0-1.21-.83-2.27-2.01-2.56Z"/>
          <path class="cls-10" d="m531.33,72.12c.29-.21.64-.32.99-.3.4-.03.8.1,1.1.36.24.23.38.55.38.89h2.54c.02-.87-.39-1.69-1.08-2.21-.84-.59-1.86-.88-2.89-.82-.98-.05-1.95.24-2.74.82-.66.5-1.05,1.28-1.05,2.11,0,1.45,1.13,2.41,3.39,2.88.51.09,1.01.25,1.48.48.28.14.46.43.46.74-.01.28-.16.55-.4.7-.33.2-.71.3-1.1.27-.45.03-.89-.1-1.25-.36-.32-.25-.5-.63-.5-1.04h-2.4c-.01.59.17,1.17.53,1.64.37.51.87.92,1.45,1.17.67.3,1.39.44,2.12.43,1.02.04,2.03-.25,2.88-.82.71-.46,1.13-1.25,1.12-2.1,0-1.21-.83-2.27-2.01-2.56-.52-.18-1.05-.32-1.59-.43-.47-.07-.93-.22-1.35-.44-.24-.15-.39-.4-.39-.68,0-.28.12-.56.35-.73Z"/>
          <path class="cls-10" d="m540.46,71.33l-.07-1.13h-2.4v9.51h2.54v-6.23c.36-.69,1.11-1.08,1.88-.98.31,0,.61.03.91.07l.07-2.44c-.27-.08-.54-.12-.82-.11-.9,0-1.72.5-2.12,1.31Z"/>
          <path class="cls-10" d="m552.85,74.39c-.03-1.2-.51-2.34-1.35-3.2-.86-.79-2.01-1.2-3.17-1.13-.83-.02-1.65.19-2.37.61-.67.38-1.21.96-1.56,1.64-.38.79-.57,1.67-.55,2.55l-.02.1c-.07,1.31.37,2.59,1.22,3.58,1.83,1.77,4.74,1.77,6.57,0,.85-.96,1.29-2.22,1.22-3.5v-.65Zm-3.07,2.71c-.1.13-.21.24-.33.33-.8.61-1.94.46-2.56-.33-.38-.62-.55-1.34-.51-2.07-.06-.78.12-1.57.51-2.25.32-.48.87-.75,1.44-.72.58-.02,1.13.25,1.45.73.38.61.56,1.33.52,2.05.06.79-.12,1.58-.52,2.26Z"/>
          <path class="cls-10" d="m563.01,74.39c-.05-1.19-.54-2.31-1.38-3.16-.85-.8-1.98-1.22-3.14-1.18-.83-.02-1.65.19-2.37.61-.67.38-1.21.96-1.56,1.64-.39.79-.59,1.66-.58,2.55v.11c-.06,1.31.38,2.59,1.24,3.57,1.83,1.77,4.74,1.77,6.57,0,.85-.96,1.29-2.22,1.22-3.5v-.65Zm-3.1,2.71c-.1.13-.21.24-.33.33-.8.61-1.94.46-2.56-.33-.38-.62-.55-1.34-.51-2.07h.03c-.07-.78.1-1.56.48-2.24.11-.14.23-.27.38-.38.8-.59,1.93-.42,2.52.38.38.61.56,1.33.52,2.05.06.79-.12,1.58-.52,2.26Z"/>
          <path class="cls-10" d="m577.4,70.94c-.59-.64-1.43-.97-2.29-.9-1.14-.04-2.22.51-2.85,1.45-.45-.97-1.46-1.56-2.52-1.47-1.05-.05-2.06.41-2.72,1.24l-.08-1.06h-2.37v9.51h2.56v-6.73c.29-.57.89-.92,1.54-.9.41-.04.81.09,1.11.37.24.35.36.77.32,1.19v6.05h2.52v-6.52c.22-.68.87-1.13,1.59-1.09.41-.05.81.09,1.11.38.24.34.36.76.32,1.18v6.07h2.54v-6.06c.07-.96-.19-1.92-.76-2.7Z"/>
          <path class="cls-18" d="m560.96,5.62h-50.6v42.17h30.92v-2.81h12.65v2.81h7.03V5.62Zm-29.52,15.47c0-2.33,1.89-4.22,4.22-4.22s4.22,1.89,4.22,4.22-1.89,4.22-4.22,4.22-4.22-1.89-4.22-4.22Zm15.47.7c1.75,0,3.16,1.42,3.16,3.17,0,1.75-1.42,3.16-3.17,3.16-1.74,0-3.16-1.42-3.16-3.16h0c0-1.76,1.42-3.17,3.17-3.16Zm-19.37,3.16c0,1.75-1.42,3.16-3.16,3.16s-3.16-1.42-3.16-3.16,1.42-3.16,3.16-3.16,3.16,1.42,3.16,3.16Zm-3.16,5.28c1.06,0,2.15.18,3.14.49,1.9-1.56,5.09-2.6,8.13-2.6s6.22,1.04,8.11,2.6c.99-.31,2.07-.48,3.13-.48,3.39,0,7.07,1.82,7.07,4.01v2.31h-36.62v-2.31c0-2.22,3.64-4.01,7.03-4.01Z"/>
          <path class="cls-15" d="m524.39,21.78c-1.75,0-3.16,1.42-3.16,3.16s1.42,3.16,3.16,3.16,3.16-1.42,3.16-3.16-1.42-3.16-3.16-3.16Z"/>
          <path class="cls-15" d="m545.5,33.73v2.81h8.47v-2.31c0-2.19-3.67-4.01-7.07-4.01-1.06,0-2.14.18-3.13.48,1.06.87,1.73,1.91,1.73,3.03Z"/>
          <path class="cls-15" d="m546.9,28.11c1.75,0,3.17-1.41,3.17-3.16,0-1.75-1.41-3.17-3.16-3.17-1.75,0-3.17,1.41-3.17,3.16h0c0,1.75,1.41,3.17,3.16,3.17Z"/>
          <path class="cls-15" d="m517.35,34.23v2.31h8.45v-2.81c0-1.11.67-2.15,1.73-3.02-.99-.31-2.08-.49-3.14-.49-3.39,0-7.03,1.79-7.03,4.01Z"/>
          <path class="cls-7" d="m535.66,25.3c2.33,0,4.22-1.89,4.22-4.22s-1.89-4.22-4.22-4.22-4.22,1.89-4.22,4.22,1.89,4.22,4.22,4.22Z"/>
          <path class="cls-7" d="m525.8,33.73v2.81h19.7v-2.81c0-1.12-.66-2.15-1.73-3.03-1.89-1.56-5.07-2.6-8.11-2.6s-6.23,1.04-8.13,2.6c-1.06.87-1.73,1.91-1.73,3.02Z"/>
          <polygon class="cls-27" points="553.93 47.79 553.93 44.98 541.28 44.98 541.28 47.79 553.91 47.79 553.93 47.79"/>
          <path class="cls-8" d="m504.74,48.84c0,2.33,1.89,4.22,4.22,4.22h53.43c2.32,0,4.2-1.89,4.2-4.22V4.55c0-2.32-1.89-4.2-4.22-4.2h-53.41c-2.33,0-4.22,1.89-4.22,4.22v44.28Zm56.22-.7h-50.6V5.27h50.6v42.88Z"/>
          <path class="cls-8" d="m508.95.35h53.41c2.32,0,4.21,1.88,4.22,4.2v-.34c0-1.16-.47-2.22-1.23-2.98-.76-.76-1.82-1.23-2.98-1.23h-53.41c-2.33,0-4.22,1.89-4.22,4.22v.35c0-2.33,1.89-4.22,4.22-4.22Z"/>
          <path class="cls-6" d="m508.95.35h53.41c2.32,0,4.21,1.88,4.22,4.2v-.34c0-1.16-.47-2.22-1.23-2.98-.76-.76-1.82-1.23-2.98-1.23h-53.41c-2.33,0-4.22,1.89-4.22,4.22v.35c0-2.33,1.89-4.22,4.22-4.22Z"/>
          <path class="cls-8" d="m562.38,53.06h-53.43c-2.33,0-4.22-1.89-4.22-4.22v.35c0,2.33,1.89,4.22,4.22,4.22h53.41c1.16,0,2.22-.47,2.98-1.23s1.23-1.82,1.23-2.98v-.35c0,2.32-1.88,4.21-4.2,4.22Z"/>
          <path class="cls-4" d="m562.38,53.06h-53.43c-2.33,0-4.22-1.89-4.22-4.22v.35c0,2.33,1.89,4.22,4.22,4.22h53.41c1.16,0,2.22-.47,2.98-1.23s1.23-1.82,1.23-2.98v-.35c0,2.32-1.88,4.21-4.2,4.22Z"/>
          <rect class="cls-8" x="510.36" y="5.27" width="50.6" height=".35"/>
          <rect class="cls-5" x="510.36" y="5.27" width="50.6" height=".35"/>
          <polygon class="cls-8" points="553.93 47.79 553.91 47.79 541.28 47.79 541.26 47.79 510.36 47.79 510.36 48.15 560.96 48.15 560.96 47.79 553.93 47.79"/>
          <polygon class="cls-6" points="553.93 47.79 553.91 47.79 541.28 47.79 541.26 47.79 510.36 47.79 510.36 48.15 560.96 48.15 560.96 47.79 553.93 47.79"/>
        </g>
        <polygon class="cls-3" points="553.94 47.79 541.29 47.79 546.91 53.41 559.55 53.41 553.94 47.79"/>
      </g>
    </g>
  </g>
</svg>
