<?xml version="1.0" encoding="UTF-8"?>
<svg id="Layer_2" data-name="Layer 2" xmlns="http://www.w3.org/2000/svg" viewBox="0 0 413.2 93.42">
  <defs>
    <style>
      .cls-1 {
        fill: #34a853;
      }

      .cls-1, .cls-2, .cls-3, .cls-4, .cls-5, .cls-6 {
        stroke-width: 0px;
      }

      .cls-2 {
        fill: #4285f4;
      }

      .cls-3 {
        fill: #fff;
      }

      .cls-4 {
        fill: #e94335;
      }

      .cls-5 {
        fill: #fbbc04;
      }

      .cls-6 {
        fill: #ea4335;
      }
    </style>
  </defs>
  <g id="Layer_1-2" data-name="Layer 1">
    <g>
      <path class="cls-3" d="m215.81,3.99h4.87l-9.68,36.29h-4.76l-7.8-23.92h-.2l-7.8,23.92h-4.76l-10.09-36.29h4.87l7.65,28.53h.2l7.86-23.67h4.36l7.86,23.67h.2l7.25-28.53Zm4.42,23.87c0-3.82,1.2-6.98,3.6-9.48,2.43-2.5,5.49-3.75,9.17-3.75s6.72,1.25,9.12,3.75c2.43,2.5,3.65,5.66,3.65,9.48s-1.22,7.01-3.65,9.48c-2.4,2.5-5.44,3.75-9.12,3.75s-6.74-1.25-9.17-3.75c-2.4-2.5-3.6-5.66-3.6-9.48Zm4.66,0c0,2.67.78,4.83,2.33,6.49,1.55,1.66,3.48,2.48,5.78,2.48s4.22-.83,5.78-2.48c1.55-1.65,2.33-3.82,2.33-6.49s-.78-4.78-2.33-6.44c-1.59-1.69-3.51-2.53-5.78-2.53s-4.19.84-5.78,2.53c-1.55,1.66-2.33,3.8-2.33,6.44Zm28.85,12.42h-4.66V15.45h4.46v4.05h.2c.47-1.32,1.44-2.44,2.91-3.37,1.47-.93,2.91-1.39,4.33-1.39s2.5.2,3.45.61l-1.42,4.51c-.57-.24-1.49-.35-2.74-.35-1.76,0-3.29.71-4.59,2.13-1.3,1.42-1.95,3.07-1.95,4.97v13.68Zm34.69,0h-5.63l-7.75-11.71-3.8,3.75v7.96h-4.66V3.99h4.66v22.35l10.74-10.9h5.98v.2l-9.68,9.63,10.14,14.8v.2Zm20.17-6.89c0,2.16-.95,3.99-2.84,5.47-1.89,1.49-4.27,2.23-7.15,2.23-2.5,0-4.7-.65-6.59-1.95-1.89-1.3-3.24-3.02-4.05-5.14l4.16-1.77c.61,1.49,1.49,2.64,2.66,3.47,1.17.83,2.44,1.24,3.83,1.24,1.49,0,2.73-.32,3.72-.96,1-.64,1.5-1.4,1.5-2.28,0-1.59-1.22-2.75-3.65-3.5l-4.26-1.06c-4.83-1.22-7.25-3.55-7.25-6.99,0-2.26.92-4.08,2.76-5.45,1.84-1.37,4.2-2.05,7.07-2.05,2.2,0,4.18.52,5.95,1.57,1.77,1.05,3.02,2.45,3.72,4.21l-4.16,1.72c-.47-1.05-1.24-1.87-2.31-2.46-1.06-.59-2.26-.89-3.57-.89-1.22,0-2.31.3-3.27.91-.96.61-1.44,1.35-1.44,2.23,0,1.42,1.33,2.43,4,3.04l3.75.96c4.93,1.22,7.4,3.7,7.4,7.45Zm16.19,7.7c-1.82,0-3.49-.39-4.99-1.17-1.5-.78-2.66-1.81-3.47-3.09h-.2l.2,3.45v10.95h-4.66V15.45h4.46v3.45h.2c.81-1.28,1.97-2.31,3.47-3.09,1.5-.78,3.17-1.17,4.99-1.17,3.28,0,6.05,1.28,8.31,3.85,2.33,2.6,3.5,5.73,3.5,9.38s-1.17,6.81-3.5,9.38c-2.26,2.57-5.03,3.85-8.31,3.85Zm-.76-4.26c2.23,0,4.11-.84,5.63-2.53,1.52-1.66,2.28-3.8,2.28-6.44s-.76-4.75-2.28-6.44c-1.52-1.69-3.4-2.53-5.63-2.53s-4.16.84-5.68,2.53c-1.49,1.69-2.23,3.84-2.23,6.44s.74,4.8,2.23,6.49c1.52,1.66,3.41,2.48,5.68,2.48Zm25.34-22.2c3.45,0,6.17.92,8.16,2.76,1.99,1.84,2.99,4.37,2.99,7.58v15.31h-4.46v-3.45h-.2c-1.93,2.84-4.49,4.26-7.7,4.26-2.74,0-5.03-.81-6.87-2.43-1.84-1.62-2.76-3.65-2.76-6.08,0-2.57.97-4.61,2.91-6.13,1.94-1.52,4.54-2.28,7.78-2.28,2.77,0,5.05.51,6.84,1.52v-1.06c0-1.62-.64-3-1.93-4.13-1.28-1.13-2.79-1.7-4.51-1.7-2.6,0-4.66,1.1-6.18,3.29l-4.11-2.58c2.26-3.24,5.61-4.87,10.03-4.87Zm-6.03,18.04c0,1.22.51,2.23,1.55,3.04,1.03.81,2.24,1.22,3.62,1.22,1.96,0,3.71-.73,5.25-2.18,1.54-1.45,2.31-3.16,2.31-5.12-1.45-1.15-3.48-1.72-6.08-1.72-1.89,0-3.47.46-4.74,1.37-1.27.91-1.9,2.04-1.9,3.4Zm32.99,8.41c-3.68,0-6.74-1.25-9.17-3.75-2.4-2.57-3.6-5.73-3.6-9.48s1.2-6.98,3.6-9.48c2.43-2.5,5.49-3.75,9.17-3.75,2.53,0,4.75.63,6.64,1.9,1.89,1.27,3.31,3.02,4.26,5.25l-4.26,1.77c-1.32-3.11-3.63-4.66-6.94-4.66-2.13,0-3.97.86-5.52,2.58-1.52,1.72-2.28,3.85-2.28,6.39s.76,4.66,2.28,6.39c1.55,1.72,3.4,2.58,5.52,2.58,3.41,0,5.81-1.55,7.2-4.66l4.16,1.77c-.91,2.23-2.34,3.98-4.28,5.25-1.94,1.27-4.2,1.9-6.77,1.9Zm25.09,0c-3.65,0-6.66-1.25-9.02-3.75-2.37-2.5-3.55-5.66-3.55-9.48s1.15-6.93,3.45-9.45c2.3-2.52,5.24-3.78,8.82-3.78s6.61,1.19,8.79,3.57c2.18,2.38,3.27,5.72,3.27,10.01l-.05.51h-19.51c.07,2.43.88,4.39,2.43,5.88,1.55,1.49,3.41,2.23,5.57,2.23,2.97,0,5.3-1.49,6.99-4.46l4.16,2.03c-1.11,2.1-2.66,3.73-4.64,4.92s-4.22,1.77-6.72,1.77Zm-7.45-16.22h14.24c-.14-1.72-.84-3.15-2.1-4.28-1.27-1.13-2.96-1.7-5.09-1.7-1.76,0-3.27.54-4.54,1.62-1.27,1.08-2.1,2.53-2.51,4.36Z"/>
      <path class="cls-2" d="m20.93,24.37v-5.61h18.78c.19.99.3,2.17.3,3.44,0,4.21-1.15,9.42-4.86,13.13-3.61,3.76-8.21,5.76-14.32,5.76C9.52,41.08,0,31.86,0,20.54S9.52,0,20.84,0c6.26,0,10.72,2.45,14.07,5.66l-3.96,3.96c-2.4-2.25-5.66-4.01-10.12-4.01-8.26,0-14.73,6.66-14.73,14.93s6.46,14.93,14.73,14.93c5.36,0,8.41-2.15,10.37-4.11,1.59-1.59,2.64-3.88,3.05-7h-13.32Z"/>
      <path class="cls-4" d="m68.64,27.86c0,7.62-5.96,13.23-13.27,13.23s-13.27-5.61-13.27-13.23,5.96-13.23,13.27-13.23,13.27,5.56,13.27,13.23Zm-5.81,0c0-4.76-3.46-8.02-7.46-8.02s-7.46,3.26-7.46,8.02,3.46,8.02,7.46,8.02,7.46-3.31,7.46-8.02Z"/>
      <path class="cls-5" d="m97.59,27.86c0,7.62-5.96,13.23-13.27,13.23s-13.27-5.61-13.27-13.23,5.96-13.23,13.27-13.23,13.27,5.56,13.27,13.23Zm-5.81,0c0-4.76-3.46-8.02-7.46-8.02s-7.46,3.26-7.46,8.02,3.46,8.02,7.46,8.02,7.46-3.31,7.46-8.02Z"/>
      <path class="cls-2" d="m125.35,15.43v23.75c0,9.77-5.76,13.78-12.57,13.78-6.41,0-10.27-4.31-11.72-7.82l5.06-2.1c.9,2.15,3.11,4.71,6.66,4.71,4.36,0,7.06-2.71,7.06-7.77v-1.9h-.2c-1.3,1.6-3.81,3.01-6.96,3.01-6.61,0-12.67-5.76-12.67-13.18s6.06-13.28,12.67-13.28c3.16,0,5.66,1.4,6.96,2.96h.2v-2.15h5.51Zm-5.11,12.47c0-4.66-3.11-8.07-7.06-8.07s-7.36,3.41-7.36,8.07,3.36,7.97,7.36,7.97,7.06-3.36,7.06-7.97Z"/>
      <path class="cls-1" d="m135.19,1.53v38.75h-5.81V1.53h5.81Z"/>
      <path class="cls-6" d="m157.62,32.21l4.51,3.01c-1.45,2.15-4.96,5.86-11.02,5.86-7.51,0-13.12-5.81-13.12-13.23,0-7.87,5.66-13.23,12.47-13.23s10.22,5.46,11.32,8.42l.6,1.5-17.68,7.31c1.35,2.66,3.46,4.01,6.41,4.01s5.01-1.45,6.51-3.66Zm-13.87-4.76l11.82-4.91c-.65-1.65-2.6-2.81-4.91-2.81-2.96,0-7.06,2.61-6.91,7.72Z"/>
      <path class="cls-3" d="m14.93,55.9c1.69,0,3.08.29,4.16.86l-1.27,4.1c-.81-.4-1.72-.61-2.74-.61-1.15,0-2.09.4-2.81,1.19-.73.79-1.09,1.85-1.09,3.17v3.14h6.49v4.26h-6.49v20.58h-4.66v-20.58H1.85v-4.26h4.66v-3.6c0-2.47.79-4.46,2.36-5.98,1.57-1.52,3.59-2.28,6.06-2.28Zm4.56,24.29c0-3.82,1.2-6.98,3.6-9.48,2.43-2.5,5.49-3.75,9.18-3.75s6.73,1.25,9.13,3.75c2.43,2.5,3.65,5.66,3.65,9.48s-1.22,7.01-3.65,9.48c-2.4,2.5-5.44,3.75-9.13,3.75s-6.74-1.25-9.18-3.75c-2.4-2.5-3.6-5.66-3.6-9.48Zm4.66,0c0,2.67.78,4.83,2.33,6.49,1.55,1.66,3.48,2.48,5.78,2.48s4.23-.83,5.78-2.48c1.55-1.66,2.33-3.82,2.33-6.49s-.78-4.78-2.33-6.44c-1.59-1.69-3.52-2.54-5.78-2.54s-4.19.85-5.78,2.54c-1.55,1.66-2.33,3.8-2.33,6.44Zm29.51,12.42h-4.66v-24.84h4.46v4.06h.2c.47-1.32,1.45-2.44,2.92-3.37,1.47-.93,2.91-1.39,4.33-1.39s2.5.2,3.45.61l-1.42,4.51c-.57-.24-1.49-.36-2.74-.36-1.76,0-3.29.71-4.59,2.13-1.3,1.42-1.95,3.08-1.95,4.97v13.69Zm46.89-36.3v4.46h-16.53v11.51h14.91v4.36h-14.91v11.51h16.53v4.46h-21.19v-36.3h21.19Zm14.53,37.11c-3.25,0-6.03-1.29-8.36-3.85-2.3-2.6-3.45-5.73-3.45-9.38s1.15-6.78,3.45-9.38c2.33-2.57,5.12-3.85,8.36-3.85,1.83,0,3.49.39,4.99,1.16,1.5.78,2.66,1.81,3.47,3.09h.2l-.2-3.45v-11.46h4.66v36.3h-4.46v-3.45h-.2c-.81,1.29-1.97,2.32-3.47,3.09-1.5.78-3.17,1.17-4.99,1.17Zm.76-4.26c2.3,0,4.17-.83,5.63-2.48,1.52-1.66,2.28-3.82,2.28-6.49s-.76-4.75-2.28-6.44c-1.49-1.69-3.36-2.54-5.63-2.54s-4.11.85-5.63,2.54c-1.52,1.69-2.28,3.84-2.28,6.44s.76,4.78,2.28,6.44c1.52,1.69,3.4,2.53,5.63,2.53Zm39.58,3.45h-4.46v-3.45h-.2c-.71,1.22-1.8,2.23-3.27,3.04-1.47.81-3,1.22-4.59,1.22-3.04,0-5.38-.87-7.02-2.61s-2.46-4.22-2.46-7.43v-15.61h4.66v15.31c.1,4.06,2.15,6.08,6.13,6.08,1.86,0,3.41-.75,4.66-2.26,1.25-1.5,1.88-3.3,1.88-5.4v-13.74h4.66v24.84Zm16.76.81c-3.68,0-6.74-1.25-9.18-3.75-2.4-2.57-3.6-5.73-3.6-9.48s1.2-6.98,3.6-9.48c2.43-2.5,5.49-3.75,9.18-3.75,2.54,0,4.75.63,6.64,1.9,1.89,1.27,3.31,3.02,4.26,5.25l-4.26,1.77c-1.32-3.11-3.63-4.66-6.95-4.66-2.13,0-3.97.86-5.53,2.59-1.52,1.72-2.28,3.85-2.28,6.39s.76,4.66,2.28,6.39c1.55,1.72,3.4,2.59,5.53,2.59,3.41,0,5.81-1.55,7.2-4.66l4.16,1.77c-.91,2.23-2.34,3.98-4.28,5.25-1.95,1.27-4.2,1.9-6.77,1.9Zm24.51-26.46c3.45,0,6.17.92,8.16,2.76,1.99,1.84,2.99,4.37,2.99,7.58v15.31h-4.46v-3.45h-.2c-1.92,2.84-4.49,4.26-7.7,4.26-2.74,0-5.03-.81-6.87-2.43-1.84-1.62-2.76-3.65-2.76-6.08,0-2.57.97-4.61,2.91-6.13,1.94-1.52,4.54-2.28,7.78-2.28,2.77,0,5.05.51,6.85,1.52v-1.07c0-1.62-.64-3-1.93-4.13-1.29-1.13-2.79-1.7-4.51-1.7-2.6,0-4.66,1.1-6.19,3.3l-4.1-2.59c2.26-3.25,5.61-4.87,10.04-4.87Zm-6.03,18.05c0,1.22.51,2.23,1.55,3.04s2.24,1.22,3.62,1.22c1.96,0,3.71-.73,5.25-2.18,1.54-1.45,2.31-3.16,2.31-5.12-1.46-1.15-3.48-1.72-6.09-1.72-1.89,0-3.47.46-4.74,1.37-1.27.91-1.9,2.04-1.9,3.4Zm31.31,8.01c-2.03,0-3.71-.62-5.04-1.87-1.34-1.25-2.02-2.99-2.05-5.22v-13.89h-4.36v-4.26h4.36v-7.61h4.66v7.61h6.08v4.26h-6.08v12.37c0,1.66.32,2.78.96,3.37s1.37.89,2.18.89c.37,0,.73-.04,1.09-.13s.68-.19.99-.33l1.47,4.16c-1.22.44-2.64.66-4.26.66Zm13.29-33.82c0,.91-.32,1.69-.96,2.33s-1.42.96-2.33.96-1.69-.32-2.33-.96c-.64-.64-.96-1.42-.96-2.33s.32-1.69.96-2.33c.64-.64,1.42-.96,2.33-.96s1.69.32,2.33.96.96,1.42.96,2.33Zm-.96,8.57v24.84h-4.66v-24.84h4.66Zm4.09,12.42c0-3.82,1.2-6.98,3.6-9.48,2.43-2.5,5.49-3.75,9.18-3.75s6.73,1.25,9.13,3.75c2.43,2.5,3.65,5.66,3.65,9.48s-1.22,7.01-3.65,9.48c-2.4,2.5-5.44,3.75-9.13,3.75s-6.74-1.25-9.18-3.75c-2.4-2.5-3.6-5.66-3.6-9.48Zm4.66,0c0,2.67.78,4.83,2.33,6.49,1.55,1.66,3.48,2.48,5.78,2.48s4.23-.83,5.78-2.48c1.55-1.66,2.33-3.82,2.33-6.49s-.78-4.78-2.33-6.44c-1.59-1.69-3.52-2.54-5.78-2.54s-4.19.85-5.78,2.54c-1.55,1.66-2.33,3.8-2.33,6.44Zm24.85-12.42h4.46v3.45h.2c.71-1.22,1.8-2.23,3.27-3.04s3-1.22,4.59-1.22c3.04,0,5.38.87,7.02,2.61,1.64,1.74,2.46,4.21,2.46,7.43v15.61h-4.66v-15.31c-.1-4.06-2.15-6.08-6.13-6.08-1.86,0-3.41.75-4.66,2.26-1.25,1.5-1.87,3.3-1.87,5.4v13.74h-4.66v-24.84Z"/>
    </g>
  </g>
</svg>