<?xml version="1.0" encoding="UTF-8"?>
<svg id="Layer_2" data-name="Layer 2" xmlns="http://www.w3.org/2000/svg" viewBox="0 0 310.77 85.52">
  <defs>
    <style>
      .cls-1 {
        fill: #fff;
        stroke-width: 0px;
      }
    </style>
  </defs>
  <g id="Layer_1-2" data-name="Layer 1">
    <g>
      <path class="cls-1" d="m91.08,19.99h13.98s1.98-18.56-12.37-19.31h-10.64s9.89,3.47,9.03,19.31"/>
      <path class="cls-1" d="m83.16,3.78s-15.09-7.05-16.33,13.23v23.5s2.11,16.33,16.71,11.01c0,0-4.33-3.96-3.84-8.9V12.44s.12-4.82,3.46-8.65"/>
      <path class="cls-1" d="m124.1,3.78s-15.09-7.05-16.32,13.23v23.5s2.1,16.33,16.7,11.01c0,0-4.34-3.96-3.84-8.9V12.44s.13-4.82,3.46-8.65"/>
      <path class="cls-1" d="m162.46,55.94V12.44s.11-4.82,3.46-8.65c0,0-15.09-7.05-16.33,13.23v38.93h12.87Z"/>
      <path class="cls-1" d="m245.6,55.94v-21.45h6.27v-10.89l-5.77.05v-11.17s.49-5.02,1.81-7.67c.6-1.19-16.32-5.94-16.16,12.21v38.93h13.85Z"/>
      <path class="cls-1" d="m173.52,55.94V12.44s1.15-7.63-6.94-11.59c0,0,20.78-6.43,21.95,16.21v38.93l-15.01-.04Z"/>
      <path class="cls-1" d="m289.64,4.97s-15.09-7.04-16.32,13.24v23.5s2.1,16.34,16.69,11c0,0-4.33-3.95-3.83-8.9V13.63s.13-4.82,3.46-8.66"/>
      <path class="cls-1" d="m90.7,36.19h13.11v7.79s-.37,10.02-11.75,11.76h-8.91s6.55-1.73,7.67-10.52l-.12-9.03Z"/>
      <path class="cls-1" d="m123.2.19s7.59,2.32,8.09,11.38v32.17s0,8.4-8.58,11.88h9.41s12.7-.83,14.03-14.68v-24.74s1.32-12.7-11.22-15.67l-11.72-.33Z"/>
      <path class="cls-1" d="m206.03.19s7.58,2.32,8.08,11.38v32.17s0,8.4-8.59,11.88h9.41s12.7-.83,14.02-14.68v-24.74s1.31-12.7-11.21-15.67l-11.71-.33Z"/>
      <path class="cls-1" d="m204.37,20.65h-14.19v-8.58s1.66-9.57,9.73-9.07c0,0,4.29-.66,7.26,1.97,0,0-3.13,3.31-2.97,5.46.17,2.14.17,10.23.17,10.23"/>
      <path class="cls-1" d="m211,22.46h-9.41s-11.58,1.15-11.42,15.17c.17,14.02,10.39,17.49,15.83,14.02,0,0-6.44-21.94,4.99-29.2"/>
      <path class="cls-1" d="m255.67,20.97h15.01v-6.6s.33-12.2-12.88-13.18h-9.73s7.43,2.62,7.43,12.53c0,5.28.16,7.26.16,7.26"/>
      <path class="cls-1" d="m289.64,1.19s18.31,13.36.83,32.99l10.88-.17s9.9-2.81,8.74-16.99c0,0,1.97-10.5-10.06-15.01-3.96-1.48-10.4-.82-10.4-.82"/>
      <path class="cls-1" d="m298.22,37.96h12.37s2.16,15.34-8.41,17.98h-11.71s10.88-7.09,7.75-17.98"/>
      <path class="cls-1" d="m9.02,76.96c.01.07.02.16.03.25v.4c0,1.38-.37,2.45-1.12,3.2-.75.74-1.82,1.13-3.21,1.13-.64,0-1.25-.09-1.8-.26-.56-.17-1-.4-1.33-.7-.57-.5-.98-1.21-1.22-2.12-.24-.91-.36-2.38-.36-4.44,0-1.4.08-2.49.22-3.27.15-.77.4-1.42.74-1.94.35-.52.84-.92,1.48-1.2.64-.27,1.39-.41,2.25-.41,1.41,0,2.48.36,3.19,1.08.71.72,1.07,1.8,1.07,3.22v.26h-2.94v-.26c0-.74-.11-1.29-.35-1.65-.23-.36-.58-.54-1.05-.54-.65,0-1.1.31-1.35.94-.24.62-.37,2.07-.37,4.34,0,1.9.13,3.17.38,3.81.25.64.7.95,1.37.95.47,0,.83-.19,1.06-.57.24-.38.35-.96.35-1.74,0-.05,0-.13,0-.24,0-.09-.01-.18-.01-.25h2.96Z"/>
      <path class="cls-1" d="m14.64,71.78c1.4,0,2.41.38,3.03,1.13.62.75.93,2,.93,3.75,0,2.03-.29,3.42-.88,4.17-.58.75-1.63,1.12-3.14,1.12s-2.56-.37-3.14-1.12c-.59-.75-.89-2.14-.89-4.17,0-1.76.31-3.01.94-3.76.64-.74,1.68-1.12,3.15-1.12m-1.35,5c0,1.36.1,2.29.29,2.76.18.48.51.71.99.71s.81-.24,1-.71c.18-.48.28-1.4.28-2.76s-.1-2.23-.28-2.65c-.19-.42-.53-.63-1.02-.63s-.81.21-.99.64c-.18.43-.27,1.31-.27,2.65"/>
      <path class="cls-1" d="m23.06,81.72h-2.74v-7.98c0-.45-.01-.8-.02-1.04-.01-.24-.03-.48-.07-.71h2.75l.08,1.01c.22-.4.51-.71.88-.92.36-.21.8-.31,1.28-.31.85,0,1.5.22,1.94.66.45.44.68,1.06.68,1.9v7.39h-2.75v-6.63c0-.63-.07-1.07-.2-1.3-.13-.24-.36-.35-.69-.35-.35,0-.62.13-.83.37-.2.25-.31.59-.31,1.01v6.91Z"/>
      <path class="cls-1" d="m29.44,78.51h2.63v.2c0,.47.09.86.27,1.14.18.28.42.43.73.43.37,0,.67-.09.89-.27.22-.19.34-.43.34-.73,0-.52-.62-1.1-1.84-1.75-.28-.14-.49-.25-.64-.34-1.05-.56-1.71-1.03-1.96-1.38-.26-.36-.39-.8-.39-1.35,0-.82.32-1.48.96-1.98.64-.51,1.49-.76,2.54-.76,1.17,0,2.05.22,2.65.67.61.45.91,1.11.91,1.96,0,.03,0,.08-.01.14,0,.07,0,.12,0,.16h-2.55s0-.08.01-.13c0-.05,0-.11,0-.18,0-.39-.09-.68-.25-.87-.16-.19-.41-.28-.74-.28-.28,0-.52.07-.7.23-.18.16-.28.36-.28.61,0,.41.56.92,1.67,1.51.49.27.88.49,1.17.65.78.47,1.31.91,1.59,1.3.28.4.43.89.43,1.46,0,.96-.35,1.68-1.05,2.17-.7.48-1.73.72-3.11.72-1.07,0-1.89-.25-2.45-.76-.58-.51-.86-1.24-.86-2.19,0-.1,0-.18,0-.24,0-.05,0-.1.03-.15"/>
      <path class="cls-1" d="m43.51,78.13h2.72c0,1.26-.34,2.22-.99,2.86-.66.63-1.65.95-2.96.95-1.51,0-2.56-.37-3.16-1.12-.59-.75-.88-2.14-.88-4.17,0-1.75.31-2.99.94-3.75.62-.75,1.65-1.13,3.1-1.13,1.33,0,2.32.32,2.97.96.66.65.98,1.64.98,2.95v1.47h-5.19v1.02c0,.73.09,1.26.28,1.59.2.33.5.49.94.49.4,0,.71-.17.93-.49.21-.33.32-.81.32-1.45v-.18Zm-2.47-2.5h2.44v-.82c0-.46-.1-.82-.32-1.08s-.51-.39-.88-.39c-.41,0-.72.16-.93.49-.21.32-.31.81-.31,1.46v.33Z"/>
      <path class="cls-1" d="m50.61,71.99v10.35c0,1.25-.2,2.09-.61,2.53-.41.43-1.16.65-2.25.65-.16,0-.28,0-.37,0-.08,0-.16,0-.25-.01v-1.89c.3-.02.51-.13.62-.29.11-.17.17-.58.17-1.22v-10.11h2.69Zm0-1.93h-2.69v-2.31h2.69v2.31Z"/>
      <path class="cls-1" d="m56.39,71.78c1.4,0,2.42.38,3.02,1.13.62.75.93,2,.93,3.75,0,2.03-.3,3.42-.88,4.17-.58.75-1.63,1.12-3.14,1.12s-2.55-.37-3.14-1.12c-.59-.75-.89-2.14-.89-4.17,0-1.76.32-3.01.95-3.76.63-.74,1.68-1.12,3.15-1.12m-1.34,5c0,1.36.09,2.29.28,2.76.19.48.52.71.99.71s.82-.24,1-.71c.18-.48.28-1.4.28-2.76s-.1-2.23-.28-2.65c-.18-.42-.53-.63-1.02-.63s-.81.21-.99.64-.26,1.31-.26,2.65"/>
      <path class="cls-1" d="m67.07,81.72v-13.94h3.91l2.63,7.24c.32.84.6,1.67.84,2.47.24.81.45,1.59.62,2.36-.06-.59-.12-1.23-.15-1.89-.04-.67-.05-1.39-.05-2.15l-.16-8.03h2.69v13.94h-3.83l-2.8-7.63c-.21-.57-.43-1.26-.67-2.05-.24-.8-.49-1.69-.74-2.65.07.89.12,1.66.16,2.32.03.67.06,1.23.07,1.7l.16,8.31h-2.66Z"/>
      <path class="cls-1" d="m79.59,74.52v-.19c0-.84.32-1.47.97-1.9.65-.43,1.6-.65,2.84-.65s2.13.22,2.71.68c.57.45.86,1.16.86,2.13v4.87c0,.43.02.83.05,1.21.03.38.07.73.14,1.07h-2.42l-.21-1.1c-.24.36-.61.64-1.09.85-.48.22-.99.33-1.52.33-.81,0-1.43-.28-1.9-.82-.47-.55-.7-1.29-.7-2.22,0-1.09.34-1.9,1.02-2.41.68-.53,1.78-.84,3.29-.92h.85v-.46c0-.67-.08-1.14-.25-1.42-.16-.27-.44-.4-.82-.4-.43,0-.75.12-.96.34-.21.23-.32.56-.32,1.01h-2.52Zm4.89,2.39c-.97,0-1.65.13-2.02.39-.37.26-.55.72-.55,1.39,0,.48.09.85.27,1.12.19.26.45.4.77.4.49,0,.87-.21,1.14-.63.26-.42.4-1.03.4-1.82v-.85Z"/>
      <path class="cls-1" d="m94.02,78.13h2.72c0,1.26-.34,2.22-1,2.86-.65.63-1.65.95-2.96.95-1.51,0-2.56-.37-3.15-1.12-.59-.75-.88-2.14-.88-4.17,0-1.75.31-2.99.93-3.75.63-.75,1.66-1.13,3.1-1.13,1.26,0,2.24.31,2.93.93.69.62,1.03,1.5,1.03,2.64v.1h-2.72v-.1c0-.63-.11-1.09-.32-1.4-.2-.31-.53-.46-.95-.46-.48,0-.82.21-.99.64-.18.43-.27,1.31-.27,2.65s.1,2.29.28,2.76.52.71,1,.71c.4,0,.71-.17.92-.5.22-.33.32-.82.32-1.44v-.18Z"/>
      <path class="cls-1" d="m101.04,70.06h-2.75v-2.31h2.75v2.31Zm0,11.66h-2.75v-9.73h2.75v9.73Z"/>
      <path class="cls-1" d="m106.78,71.78c1.4,0,2.41.38,3.03,1.13.62.75.92,2,.92,3.75,0,2.03-.3,3.42-.88,4.17-.59.75-1.63,1.12-3.13,1.12s-2.56-.37-3.15-1.12c-.58-.75-.88-2.14-.88-4.17,0-1.76.31-3.01.94-3.76.63-.74,1.68-1.12,3.14-1.12m-1.35,5c0,1.36.09,2.29.29,2.76.18.48.51.71.99.71s.81-.24,1-.71c.18-.48.27-1.4.27-2.76s-.09-2.23-.27-2.65c-.18-.42-.53-.63-1.02-.63s-.8.21-.98.64c-.18.43-.28,1.31-.28,2.65"/>
      <path class="cls-1" d="m115.21,81.72h-2.75v-7.98c0-.45,0-.8-.02-1.04,0-.24-.02-.48-.07-.71h2.76l.08,1.01c.22-.4.51-.71.88-.92.36-.21.8-.31,1.28-.31.85,0,1.5.22,1.94.66.45.44.68,1.06.68,1.9v7.39h-2.75v-6.63c0-.63-.07-1.07-.2-1.3-.13-.24-.36-.35-.69-.35-.35,0-.63.13-.83.37-.21.25-.31.59-.31,1.01v6.91Z"/>
      <path class="cls-1" d="m121.94,74.52v-.19c0-.84.33-1.47.98-1.9.65-.43,1.6-.65,2.84-.65s2.13.22,2.71.68c.57.45.86,1.16.86,2.13v4.87c0,.43.02.83.05,1.21.04.38.08.73.14,1.07h-2.42l-.21-1.1c-.24.36-.61.64-1.09.85-.48.22-.99.33-1.52.33-.8,0-1.44-.28-1.9-.82-.47-.55-.7-1.29-.7-2.22,0-1.09.34-1.9,1.01-2.41.68-.53,1.78-.84,3.29-.92h.86v-.46c0-.67-.08-1.14-.24-1.42-.17-.27-.45-.4-.83-.4-.42,0-.75.12-.96.34-.22.23-.33.56-.33,1.01h-2.53Zm4.89,2.39c-.98,0-1.65.13-2.02.39-.38.26-.56.72-.56,1.39,0,.48.09.85.28,1.12.18.26.44.4.77.4.49,0,.87-.21,1.13-.63.27-.42.4-1.03.4-1.82v-.85Z"/>
      <rect class="cls-1" x="131.29" y="67.78" width="2.69" height="13.94"/>
      <path class="cls-1" d="m145.4,72.79v-5.01h2.66v11.78c0,.32,0,.66.01,1.03.02.36.04.73.06,1.11h-2.66l-.09-.92c-.2.37-.48.65-.86.86-.37.2-.8.3-1.29.3-.37,0-.73-.07-1.07-.2-.34-.14-.62-.32-.85-.55-.32-.36-.57-.84-.7-1.44-.14-.61-.2-1.61-.2-3.05,0-1.79.2-3.06.62-3.81.41-.76,1.1-1.13,2.06-1.13.5,0,.94.09,1.31.25.36.17.69.43.97.79m-.01,2.92c0-.75-.1-1.31-.28-1.67-.19-.36-.48-.54-.86-.54-.42,0-.71.21-.88.62-.17.42-.25,1.29-.25,2.63v.23c0,1.51.08,2.44.23,2.79.16.36.44.54.86.54s.74-.17.91-.51c.18-.34.26-1,.26-1.98v-2.1Z"/>
      <path class="cls-1" d="m155.08,78.13h2.71c0,1.26-.32,2.22-.99,2.86-.66.63-1.64.95-2.97.95-1.5,0-2.56-.37-3.14-1.12-.59-.75-.88-2.14-.88-4.17,0-1.75.31-2.99.94-3.75.62-.75,1.65-1.13,3.09-1.13,1.34,0,2.34.32,2.98.96.66.65.98,1.64.98,2.95v1.47h-5.19v1.02c0,.73.09,1.26.29,1.59.19.33.5.49.93.49s.72-.17.93-.49c.22-.33.32-.81.32-1.45v-.18Zm-2.47-2.5h2.44v-.82c0-.46-.1-.82-.31-1.08-.21-.26-.51-.39-.89-.39-.41,0-.72.16-.94.49-.2.32-.31.81-.31,1.46v.33Z"/>
      <polygon class="cls-1" points="164.44 81.72 164.44 67.78 171.61 67.78 171.61 69.93 167.37 69.93 167.37 73.27 171.41 73.27 171.41 75.41 167.37 75.41 167.37 81.72 164.44 81.72"/>
      <path class="cls-1" d="m177.31,71.78c1.41,0,2.42.38,3.03,1.13.62.75.93,2,.93,3.75,0,2.03-.3,3.42-.89,4.17-.59.75-1.63,1.12-3.13,1.12s-2.55-.37-3.14-1.12c-.6-.75-.89-2.14-.89-4.17,0-1.76.32-3.01.94-3.76.64-.74,1.68-1.12,3.15-1.12m-1.35,5c0,1.36.1,2.29.28,2.76.18.48.52.71,1,.71s.81-.24.99-.71c.19-.48.28-1.4.28-2.76s-.09-2.23-.28-2.65c-.18-.42-.52-.63-1.01-.63s-.81.21-.99.64c-.18.43-.27,1.31-.27,2.65"/>
      <path class="cls-1" d="m185.73,73.01c.22-.4.52-.71.88-.92.37-.21.79-.32,1.28-.32.62,0,1.15.13,1.58.38.42.27.73.63.91,1.11.25-.49.57-.87.95-1.12.38-.25.83-.37,1.34-.37.84,0,1.5.22,1.95.66.45.43.67,1.06.67,1.9v7.39h-2.74v-6.63c0-.64-.06-1.07-.2-1.31-.12-.23-.36-.34-.68-.34-.34,0-.63.13-.84.38-.21.25-.32.58-.32,1v6.91h-2.74v-6.63c0-.63-.08-1.07-.21-1.3-.13-.24-.36-.35-.69-.35-.35,0-.62.13-.83.37-.21.25-.31.59-.31,1.01v6.91h-2.74v-7.98c0-.45,0-.8-.02-1.04-.01-.24-.03-.48-.06-.71h2.75l.08,1.01Z"/>
      <path class="cls-1" d="m202.28,78.13h2.72c0,1.26-.33,2.22-.99,2.86-.66.63-1.65.95-2.97.95-1.51,0-2.55-.37-3.15-1.12-.59-.75-.89-2.14-.89-4.17,0-1.75.31-2.99.94-3.75.63-.75,1.66-1.13,3.1-1.13,1.34,0,2.33.32,2.98.96.65.65.97,1.64.97,2.95v1.47h-5.19v1.02c0,.73.1,1.26.29,1.59.19.33.5.49.93.49s.72-.17.93-.49c.21-.33.32-.81.32-1.45v-.18Zm-2.47-2.5h2.45v-.82c0-.46-.11-.82-.32-1.08-.21-.26-.51-.39-.89-.39-.41,0-.72.16-.94.49-.2.32-.31.81-.31,1.46v.33Z"/>
      <path class="cls-1" d="m209.39,81.72h-2.74v-7.98c0-.45-.01-.8-.03-1.04-.01-.24-.04-.48-.06-.71h2.75l.08,1.01c.22-.4.52-.71.88-.92.36-.21.79-.31,1.28-.31.85,0,1.5.22,1.94.66.45.44.68,1.06.68,1.9v7.39h-2.75v-6.63c0-.63-.07-1.07-.2-1.3-.13-.24-.37-.35-.69-.35-.35,0-.63.13-.84.37-.21.25-.31.59-.31,1.01v6.91Z"/>
      <path class="cls-1" d="m220.82,81.65c-.41.05-.78.08-1.11.11-.34.02-.61.04-.84.04-.84,0-1.46-.21-1.85-.62-.4-.41-.6-1.05-.6-1.93v-5.61h-1.28v-1.65h1.28v-1.65l2.67-1.18v2.83h1.74v1.65h-1.74v5.26c0,.5.06.82.2.96.13.15.4.22.8.22.11,0,.31,0,.6-.03.07,0,.11,0,.13,0v1.6Z"/>
      <path class="cls-1" d="m225.84,71.78c1.41,0,2.42.38,3.03,1.13.61.75.92,2,.92,3.75,0,2.03-.29,3.42-.88,4.17-.59.75-1.64,1.12-3.14,1.12s-2.55-.37-3.14-1.12c-.59-.75-.88-2.14-.88-4.17,0-1.76.31-3.01.94-3.76.63-.74,1.69-1.12,3.15-1.12m-1.35,5c0,1.36.1,2.29.28,2.76.18.48.52.71.99.71s.82-.24,1-.71c.19-.48.28-1.4.28-2.76s-.09-2.23-.28-2.65c-.18-.42-.53-.63-1.01-.63s-.81.21-.99.64c-.19.43-.28,1.31-.28,2.65"/>
      <polygon class="cls-1" points="236.52 81.72 236.52 67.78 244.04 67.78 244.04 69.93 239.45 69.93 239.45 73.27 243.67 73.27 243.67 75.41 239.45 75.41 239.45 79.46 244.21 79.46 244.21 81.72 236.52 81.72"/>
      <path class="cls-1" d="m250.64,72.79v-5.01h2.66v11.78c0,.32,0,.66.02,1.03.01.36.03.73.06,1.11h-2.67l-.09-.92c-.19.37-.47.65-.85.86-.37.2-.8.3-1.28.3-.38,0-.74-.07-1.07-.2-.34-.14-.62-.32-.84-.55-.33-.36-.57-.84-.71-1.44-.13-.61-.2-1.61-.2-3.05,0-1.79.21-3.06.63-3.81.41-.76,1.1-1.13,2.06-1.13.5,0,.93.09,1.3.25.38.17.7.43.98.79m-.02,2.92c0-.75-.1-1.31-.28-1.67-.18-.36-.47-.54-.85-.54-.42,0-.71.21-.88.62-.16.42-.25,1.29-.25,2.63v.23c0,1.51.07,2.44.22,2.79.16.36.44.54.86.54s.74-.17.92-.51c.17-.34.26-1,.26-1.98v-2.1Z"/>
      <path class="cls-1" d="m260.02,71.99h2.74v8.42c0,.33,0,.59.02.76.01.18.03.35.05.52h-2.73l-.09-1.04c-.23.42-.53.74-.88.95-.36.22-.78.32-1.26.32-.85,0-1.5-.22-1.95-.67-.46-.45-.69-1.09-.69-1.92v-7.35h2.75v6.61c0,.65.07,1.08.2,1.31.13.22.36.34.69.34s.63-.12.84-.37c.21-.25.32-.58.32-1.01v-6.88Z"/>
      <path class="cls-1" d="m269.82,78.13h2.72c0,1.26-.34,2.22-.99,2.86-.66.63-1.65.95-2.97.95-1.51,0-2.56-.37-3.14-1.12-.59-.75-.88-2.14-.88-4.17,0-1.75.31-2.99.94-3.75.62-.75,1.66-1.13,3.09-1.13,1.27,0,2.24.31,2.93.93.68.62,1.03,1.5,1.03,2.64v.1h-2.72v-.1c0-.63-.1-1.09-.31-1.4-.22-.31-.52-.46-.95-.46-.48,0-.82.21-1,.64-.17.43-.26,1.31-.26,2.65s.09,2.29.27,2.76c.19.48.53.71,1.01.71.4,0,.7-.17.92-.5.21-.33.32-.82.32-1.44v-.18Z"/>
      <path class="cls-1" d="m274.15,74.52v-.19c0-.84.33-1.47.97-1.9.65-.43,1.59-.65,2.85-.65s2.13.22,2.71.68c.58.45.87,1.16.87,2.13v4.87c0,.43.02.83.05,1.21.02.38.07.73.14,1.07h-2.42l-.21-1.1c-.24.36-.61.64-1.09.85-.48.22-.99.33-1.52.33-.8,0-1.44-.28-1.91-.82-.46-.55-.7-1.29-.7-2.22,0-1.09.34-1.9,1.01-2.41.68-.53,1.78-.84,3.29-.92h.86v-.46c0-.67-.08-1.14-.25-1.42-.17-.27-.43-.4-.83-.4-.43,0-.74.12-.96.34-.21.23-.33.56-.33,1.01h-2.52Zm4.89,2.39c-.98,0-1.65.13-2.03.39-.37.26-.55.72-.55,1.39,0,.48.09.85.27,1.12.19.26.45.4.77.4.49,0,.87-.21,1.13-.63.27-.42.4-1.03.4-1.82v-.85Z"/>
      <path class="cls-1" d="m288.23,81.65c-.41.05-.78.08-1.12.11-.33.02-.61.04-.84.04-.84,0-1.46-.21-1.86-.62-.4-.41-.59-1.05-.59-1.93v-5.61h-1.27v-1.65h1.27v-1.65l2.67-1.18v2.83h1.74v1.65h-1.74v5.26c0,.5.07.82.2.96.13.15.4.22.8.22.11,0,.31,0,.6-.03.07,0,.11,0,.14,0v1.6Z"/>
      <path class="cls-1" d="m292.07,70.06h-2.75v-2.31h2.75v2.31Zm0,11.66h-2.75v-9.73h2.75v9.73Z"/>
      <path class="cls-1" d="m295.71,81.72l-2.47-9.73h2.78l.7,3.92c.1.56.19,1.21.27,1.92.08.72.16,1.5.23,2.34.13-1.02.41-2.35.83-4l.06-.21,1.04-3.96h2.64l-3.13,9.73h-2.96Z"/>
      <path class="cls-1" d="m306.58,71.78c1.41,0,2.41.38,3.03,1.13.62.75.92,2,.92,3.75,0,2.03-.29,3.42-.88,4.17-.58.75-1.63,1.12-3.13,1.12s-2.56-.37-3.15-1.12c-.59-.75-.89-2.14-.89-4.17,0-1.76.32-3.01.94-3.76.63-.74,1.68-1.12,3.15-1.12m-1.35,5c0,1.36.09,2.29.28,2.76.18.48.52.71.99.71s.81-.24,1-.71c.19-.48.28-1.4.28-2.76s-.09-2.23-.28-2.65c-.19-.42-.53-.63-1.02-.63s-.81.21-.99.64c-.18.43-.27,1.31-.27,2.65"/>
    </g>
  </g>
</svg>