<?xml version="1.0" encoding="UTF-8"?>
<svg id="Layer_2" data-name="Layer 2" xmlns="http://www.w3.org/2000/svg" viewBox="0 0 500.67 117.91">
  <defs>
    <style>
      .cls-1 {
        fill: #fff;
        stroke-width: 0px;
      }
    </style>
  </defs>
  <g id="Layer_1-2" data-name="Layer 1">
    <g>
      <path class="cls-1" d="m211.3,26.32h18.41s2.6-24.45-16.3-25.43h-14.01s13.03,4.57,11.9,25.43"/>
      <path class="cls-1" d="m200.86,4.97s-19.88-9.29-21.51,17.43v30.96s2.77,21.51,22,14.5c0,0-5.71-5.22-5.05-11.73V16.38s.16-6.36,4.56-11.41"/>
      <path class="cls-1" d="m254.79,4.97s-19.87-9.29-21.5,17.43v30.96s2.77,21.51,22,14.5c0,0-5.71-5.22-5.05-11.73V16.38s.16-6.36,4.55-11.41"/>
      <path class="cls-1" d="m305.32,73.69V16.38s.16-6.36,4.56-11.41c0,0-19.88-9.29-21.51,17.43v51.29h16.95Z"/>
      <path class="cls-1" d="m414.82,73.69v-28.25h8.26v-14.34l-7.6.06v-14.73s.65-6.62,2.39-10.11c.78-1.57-21.51-7.81-21.29,16.08v51.29h18.24Z"/>
      <path class="cls-1" d="m319.88,73.69V16.38s1.52-10.06-9.13-15.27c0,0,27.37-8.48,28.91,21.35v51.28l-19.77-.05Z"/>
      <path class="cls-1" d="m472.83,6.55s-19.88-9.29-21.5,17.44v30.95s2.76,21.52,21.98,14.49c0,0-5.7-5.2-5.04-11.72V17.95s.16-6.35,4.56-11.4"/>
      <path class="cls-1" d="m210.8,47.66h17.27v10.26s-.49,13.21-15.47,15.49h-11.74s8.63-2.28,10.11-13.85l-.17-11.9Z"/>
      <path class="cls-1" d="m253.6.24s10,3.05,10.64,14.99v42.38s0,11.07-11.3,15.64h12.39s16.72-1.09,18.47-19.33V21.32s1.74-16.73-14.77-20.64l-15.43-.44Z"/>
      <path class="cls-1" d="m362.72.24s9.97,3.05,10.64,14.99v42.38s0,11.07-11.31,15.64h12.39s16.72-1.09,18.47-19.33V21.32s1.73-16.73-14.77-20.64l-15.42-.44Z"/>
      <path class="cls-1" d="m360.51,27.19h-18.69v-11.3s2.18-12.6,12.82-11.95c0,0,5.65-.87,9.57,2.61,0,0-4.14,4.34-3.92,7.18.22,2.82.22,13.46.22,13.46"/>
      <path class="cls-1" d="m369.25,29.58h-12.39s-15.25,1.52-15.04,19.99c.22,18.47,13.68,23.03,20.86,18.47,0,0-8.48-28.89,6.57-38.45"/>
      <path class="cls-1" d="m428.08,27.61h19.77v-8.68s.43-16.07-16.96-17.37h-12.8s9.78,3.44,9.78,16.5c0,6.96.22,9.55.22,9.55"/>
      <path class="cls-1" d="m472.83,1.56s24.12,17.58,1.1,43.44l14.33-.22s13.04-3.69,11.52-22.38c0,0,2.59-13.84-13.26-19.77-5.21-1.95-13.69-1.07-13.69-1.07"/>
      <path class="cls-1" d="m484.13,50h16.29s2.83,20.2-11.08,23.7h-15.42s14.33-9.35,10.2-23.7"/>
      <path class="cls-1" d="m14.53,104.11c.02.12.03.26.05.4v.64c0,2.23-.61,3.95-1.82,5.16-1.2,1.2-2.93,1.82-5.17,1.82-1.03,0-2-.14-2.9-.41-.89-.27-1.61-.65-2.14-1.14-.92-.8-1.58-1.93-1.97-3.41-.39-1.47-.57-3.85-.57-7.15,0-2.26.12-4.01.35-5.27.24-1.25.64-2.29,1.19-3.11.57-.85,1.36-1.49,2.39-1.93,1.03-.44,2.24-.66,3.63-.66,2.27,0,3.98.58,5.13,1.74,1.15,1.17,1.73,2.89,1.73,5.19v.42h-4.74v-.42c0-1.2-.18-2.08-.56-2.65-.36-.58-.93-.87-1.69-.87-1.06,0-1.78.5-2.18,1.5-.39,1.01-.59,3.33-.59,6.99,0,3.07.21,5.12.61,6.13.4,1.03,1.14,1.53,2.21,1.53.76,0,1.34-.3,1.71-.92.38-.62.57-1.55.57-2.82,0-.07,0-.2,0-.37,0-.16-.02-.3-.02-.4h4.77Z"/>
      <path class="cls-1" d="m23.58,95.75c2.26,0,3.89.61,4.88,1.83,1,1.2,1.49,3.21,1.49,6.03,0,3.27-.47,5.51-1.42,6.7-.94,1.21-2.63,1.81-5.05,1.81s-4.12-.6-5.06-1.81c-.95-1.21-1.43-3.43-1.43-6.7,0-2.84.51-4.85,1.53-6.06,1.02-1.2,2.7-1.8,5.07-1.8m-2.17,8.06c0,2.2.16,3.68.46,4.45.29.77.83,1.15,1.59,1.15s1.31-.38,1.61-1.15c.31-.77.45-2.25.45-4.45s-.15-3.59-.45-4.27c-.3-.68-.85-1.03-1.64-1.03s-1.3.34-1.59,1.03c-.29.69-.43,2.1-.43,4.26"/>
      <path class="cls-1" d="m37.16,111.78h-4.42v-12.86c0-.72-.01-1.28-.03-1.67-.01-.4-.06-.78-.11-1.15h4.44l.12,1.63c.35-.64.83-1.13,1.42-1.48.59-.33,1.28-.5,2.07-.5,1.37,0,2.41.35,3.13,1.06.73.7,1.09,1.72,1.09,3.05v11.92h-4.43v-10.69c0-1.02-.11-1.72-.32-2.1-.22-.38-.59-.57-1.12-.57s-1,.21-1.34.61c-.33.39-.49.94-.49,1.61v11.13Z"/>
      <path class="cls-1" d="m47.43,106.62h4.25v.32c0,.77.15,1.39.44,1.85.29.44.68.68,1.17.68.6,0,1.08-.14,1.44-.44.35-.3.54-.7.54-1.18,0-.84-.98-1.78-2.96-2.82-.44-.22-.79-.41-1.03-.54-1.68-.92-2.75-1.66-3.16-2.22-.42-.59-.63-1.31-.63-2.18,0-1.32.51-2.38,1.55-3.19,1.03-.81,2.39-1.23,4.1-1.23,1.88,0,3.31.36,4.27,1.08.98.71,1.46,1.77,1.46,3.16,0,.05,0,.12-.02.23,0,.11,0,.2,0,.27h-4.11c0-.08.01-.14.02-.21,0-.07,0-.17,0-.28,0-.63-.14-1.09-.39-1.4-.26-.31-.66-.46-1.2-.46-.46,0-.83.12-1.12.38-.3.25-.44.58-.44.99,0,.67.89,1.48,2.69,2.44.79.43,1.42.78,1.89,1.04,1.25.77,2.11,1.46,2.57,2.11.45.65.69,1.43.69,2.34,0,1.55-.57,2.72-1.69,3.49-1.13.78-2.79,1.18-5.01,1.18-1.72,0-3.04-.42-3.95-1.24-.93-.82-1.39-1.99-1.39-3.52,0-.16,0-.31,0-.38,0-.09.02-.17.04-.25"/>
      <path class="cls-1" d="m70.11,106h4.38c0,2.04-.54,3.58-1.6,4.6-1.05,1.01-2.66,1.53-4.77,1.53-2.43,0-4.13-.61-5.08-1.82-.94-1.2-1.42-3.43-1.42-6.7,0-2.82.5-4.82,1.51-6.03,1-1.21,2.67-1.82,4.99-1.82,2.14,0,3.75.52,4.79,1.55,1.05,1.05,1.58,2.64,1.58,4.75v2.37h-8.36v1.64c0,1.17.15,2.02.46,2.55.31.53.81.8,1.5.8.65,0,1.16-.27,1.51-.8.35-.53.51-1.31.51-2.32v-.29Zm-3.98-4.02h3.93v-1.31c0-.76-.16-1.33-.51-1.74-.34-.42-.81-.63-1.42-.63-.66,0-1.16.27-1.5.79-.33.53-.49,1.31-.49,2.35v.54Z"/>
      <path class="cls-1" d="m81.55,96.11v16.69c0,2.02-.33,3.36-.99,4.07-.65.71-1.86,1.04-3.62,1.04-.25,0-.45,0-.6,0-.13,0-.27-.01-.39-.02v-3.03c.47-.05.8-.22.99-.48.18-.27.27-.93.27-1.96v-16.3h4.34Zm0-3.11h-4.34v-3.72h4.34v3.72Z"/>
      <path class="cls-1" d="m90.85,95.75c2.26,0,3.89.61,4.87,1.83,1,1.2,1.5,3.21,1.5,6.03,0,3.27-.48,5.51-1.42,6.7-.95,1.21-2.63,1.81-5.05,1.81s-4.12-.6-5.06-1.81c-.96-1.21-1.44-3.43-1.44-6.7,0-2.84.52-4.85,1.53-6.06,1.02-1.2,2.7-1.8,5.07-1.8m-2.18,8.06c0,2.2.15,3.68.45,4.45.31.77.84,1.15,1.61,1.15s1.31-.38,1.61-1.15c.3-.77.45-2.25.45-4.45s-.15-3.59-.45-4.27c-.3-.68-.85-1.03-1.64-1.03s-1.31.34-1.6,1.03c-.29.69-.43,2.1-.43,4.26"/>
      <path class="cls-1" d="m108.07,111.78v-22.46h6.3l4.25,11.66c.52,1.36.96,2.69,1.36,3.99.38,1.3.72,2.56.99,3.81-.1-.96-.19-1.99-.25-3.05-.06-1.08-.09-2.23-.09-3.47l-.27-12.94h4.34v22.46h-6.18l-4.5-12.3c-.34-.92-.7-2.03-1.09-3.31-.38-1.29-.78-2.71-1.2-4.27.12,1.43.2,2.67.26,3.75.05,1.08.1,1.99.11,2.74l.25,13.38h-4.29Z"/>
      <path class="cls-1" d="m128.23,100.18v-.31c0-1.35.52-2.36,1.57-3.06,1.04-.7,2.57-1.06,4.58-1.06s3.43.36,4.36,1.09c.92.72,1.39,1.86,1.39,3.43v7.83c0,.69.04,1.34.09,1.95.04.62.12,1.19.22,1.73h-3.9l-.34-1.78c-.38.58-.98,1.04-1.75,1.37-.78.36-1.6.53-2.45.53-1.3,0-2.31-.44-3.08-1.31-.74-.89-1.13-2.07-1.13-3.57,0-1.76.55-3.06,1.64-3.9,1.1-.85,2.86-1.34,5.3-1.47h1.38v-.74c0-1.08-.13-1.84-.4-2.27-.27-.44-.72-.65-1.33-.65-.69,0-1.21.17-1.56.54-.34.37-.52.91-.52,1.63h-4.08Zm7.89,3.86c-1.58,0-2.67.21-3.27.62-.6.43-.88,1.17-.88,2.24,0,.77.14,1.36.44,1.79.3.43.71.64,1.24.64.8,0,1.41-.33,1.83-1,.43-.68.65-1.66.65-2.93v-1.36Z"/>
      <path class="cls-1" d="m151.49,106h4.38c0,2.04-.54,3.58-1.6,4.6-1.05,1.02-2.65,1.53-4.77,1.53-2.43,0-4.13-.61-5.08-1.82-.94-1.2-1.42-3.43-1.42-6.7,0-2.82.5-4.83,1.51-6.04,1-1.21,2.67-1.82,4.99-1.82,2.03,0,3.6.5,4.72,1.5,1.1,1.01,1.66,2.42,1.66,4.26v.15h-4.38v-.15c0-1.02-.17-1.76-.5-2.27-.34-.49-.86-.73-1.53-.73-.78,0-1.31.34-1.6,1.03-.29.69-.44,2.1-.44,4.26s.15,3.68.46,4.45c.3.77.83,1.15,1.61,1.15.64,0,1.14-.27,1.49-.81.34-.52.52-1.31.52-2.31v-.29Z"/>
      <path class="cls-1" d="m162.8,93h-4.42v-3.72h4.42v3.72Zm0,18.79h-4.42v-15.68h4.42v15.68Z"/>
      <path class="cls-1" d="m172.05,95.75c2.26,0,3.89.61,4.88,1.83.99,1.2,1.49,3.21,1.49,6.03,0,3.27-.47,5.51-1.42,6.7-.94,1.21-2.63,1.81-5.04,1.81s-4.12-.6-5.08-1.81c-.94-1.21-1.42-3.43-1.42-6.7,0-2.84.51-4.85,1.52-6.06,1.02-1.2,2.71-1.8,5.07-1.8m-2.17,8.06c0,2.2.15,3.68.46,4.45.28.77.83,1.15,1.59,1.15s1.32-.38,1.62-1.15c.29-.77.44-2.25.44-4.45s-.15-3.59-.44-4.27c-.3-.68-.86-1.03-1.64-1.03s-1.3.34-1.59,1.03c-.29.69-.43,2.1-.43,4.26"/>
      <path class="cls-1" d="m185.63,111.78h-4.43v-12.86c0-.72,0-1.28-.03-1.67,0-.4-.04-.78-.1-1.15h4.44l.12,1.63c.35-.64.83-1.13,1.42-1.48.58-.33,1.28-.5,2.07-.5,1.36,0,2.4.35,3.12,1.06.73.7,1.09,1.72,1.09,3.05v11.92h-4.41v-10.69c0-1.02-.11-1.72-.33-2.1-.21-.38-.59-.57-1.12-.57s-1.01.21-1.34.61c-.33.39-.5.94-.5,1.61v11.13Z"/>
      <path class="cls-1" d="m196.47,100.18v-.31c0-1.35.53-2.36,1.57-3.06,1.04-.7,2.57-1.06,4.57-1.06s3.44.36,4.37,1.09c.92.72,1.39,1.86,1.39,3.43v7.83c0,.69.03,1.34.07,1.95.06.62.13,1.19.23,1.73h-3.9l-.34-1.78c-.38.58-.98,1.04-1.75,1.37-.77.36-1.6.53-2.46.53-1.29,0-2.31-.44-3.05-1.31-.76-.89-1.14-2.07-1.14-3.57,0-1.76.55-3.06,1.64-3.9,1.1-.85,2.86-1.34,5.3-1.47h1.37v-.74c0-1.08-.13-1.84-.39-2.27-.27-.44-.72-.65-1.34-.65-.68,0-1.2.17-1.54.54-.36.37-.53.91-.53,1.63h-4.08Zm7.88,3.86c-1.58,0-2.66.21-3.26.62-.6.43-.9,1.17-.9,2.24,0,.77.15,1.36.45,1.79.3.43.72.64,1.25.64.79,0,1.4-.33,1.82-1,.43-.68.64-1.66.64-2.93v-1.36Z"/>
      <rect class="cls-1" x="211.54" y="89.32" width="4.33" height="22.46"/>
      <path class="cls-1" d="m234.27,97.4v-8.08h4.29v18.97c0,.52.01,1.07.03,1.65.03.59.06,1.19.1,1.8h-4.29l-.16-1.49c-.32.6-.77,1.05-1.37,1.39-.59.32-1.29.49-2.07.49-.6,0-1.18-.11-1.72-.33-.54-.22-.99-.51-1.37-.89-.52-.57-.91-1.33-1.13-2.3-.22-.98-.32-2.62-.32-4.93,0-2.87.33-4.92,1.01-6.13.66-1.22,1.77-1.83,3.31-1.83.81,0,1.52.13,2.12.4.59.27,1.11.7,1.57,1.28m-.02,4.68c0-1.2-.16-2.1-.45-2.69-.3-.59-.77-.87-1.37-.87-.68,0-1.16.34-1.42,1.01-.27.68-.4,2.08-.4,4.23v.38c0,2.42.12,3.92.37,4.51.25.58.71.86,1.39.86s1.19-.27,1.46-.82c.28-.55.43-1.62.43-3.2v-3.39Z"/>
      <path class="cls-1" d="m249.87,106h4.37c0,2.04-.53,3.58-1.6,4.6-1.06,1.01-2.65,1.53-4.78,1.53-2.43,0-4.12-.61-5.07-1.82-.94-1.2-1.43-3.43-1.43-6.7,0-2.82.51-4.82,1.52-6.03,1-1.21,2.67-1.82,4.98-1.82,2.16,0,3.76.52,4.8,1.55,1.05,1.05,1.58,2.64,1.58,4.75v2.37h-8.36v1.64c0,1.17.15,2.02.46,2.55.31.53.81.8,1.5.8.65,0,1.15-.27,1.5-.8.35-.53.52-1.31.52-2.32v-.29Zm-3.99-4.02h3.94v-1.31c0-.76-.16-1.33-.51-1.74-.34-.42-.82-.63-1.43-.63-.66,0-1.16.27-1.5.79-.33.53-.5,1.31-.5,2.35v.54Z"/>
      <polygon class="cls-1" points="264.95 111.78 264.95 89.32 276.5 89.32 276.5 92.78 269.67 92.78 269.67 98.17 276.19 98.17 276.19 101.62 269.67 101.62 269.67 111.78 264.95 111.78"/>
      <path class="cls-1" d="m285.68,95.75c2.27,0,3.9.61,4.88,1.83,1,1.2,1.49,3.21,1.49,6.03,0,3.27-.48,5.51-1.43,6.7-.94,1.21-2.62,1.81-5.04,1.81s-4.11-.6-5.06-1.81c-.96-1.21-1.43-3.43-1.43-6.7,0-2.84.51-4.85,1.52-6.06,1.03-1.2,2.71-1.8,5.07-1.8m-2.17,8.06c0,2.2.16,3.68.45,4.45.3.77.84,1.15,1.61,1.15s1.31-.38,1.61-1.15c.3-.77.46-2.25.46-4.45s-.16-3.59-.46-4.27c-.3-.68-.84-1.03-1.63-1.03s-1.31.34-1.6,1.03c-.29.69-.43,2.1-.43,4.26"/>
      <path class="cls-1" d="m299.26,97.74c.35-.64.83-1.13,1.42-1.47.6-.33,1.28-.51,2.07-.51,1.01,0,1.85.22,2.54.62.68.42,1.18,1.01,1.47,1.78.4-.79.91-1.4,1.53-1.8.61-.39,1.34-.6,2.17-.6,1.36,0,2.41.36,3.13,1.07.72.7,1.09,1.72,1.09,3.05v11.91h-4.42v-10.69c0-1.04-.11-1.74-.32-2.12-.21-.36-.59-.55-1.09-.55-.56,0-1.01.21-1.36.61-.35.4-.5.94-.5,1.62v11.13h-4.42v-10.69c0-1.01-.12-1.72-.33-2.1-.21-.38-.59-.57-1.13-.57s-1,.21-1.34.61c-.33.39-.5.94-.5,1.62v11.13h-4.42v-12.85c0-.72-.01-1.29-.03-1.67-.03-.4-.06-.78-.11-1.15h4.44l.12,1.63Z"/>
      <path class="cls-1" d="m325.93,106h4.39c0,2.04-.53,3.58-1.59,4.6-1.07,1.01-2.67,1.53-4.79,1.53-2.42,0-4.12-.61-5.07-1.82-.96-1.2-1.43-3.43-1.43-6.7,0-2.82.5-4.82,1.51-6.03,1.01-1.21,2.67-1.82,4.98-1.82,2.16,0,3.76.52,4.81,1.55,1.05,1.05,1.57,2.64,1.57,4.75v2.37h-8.36v1.64c0,1.17.16,2.02.46,2.55.31.53.81.8,1.5.8s1.16-.27,1.5-.8c.34-.53.51-1.31.51-2.32v-.29Zm-3.98-4.02h3.93v-1.31c0-.76-.16-1.33-.5-1.74-.34-.42-.82-.63-1.43-.63-.66,0-1.16.27-1.51.79-.33.53-.49,1.31-.49,2.35v.54Z"/>
      <path class="cls-1" d="m337.38,111.78h-4.42v-12.86c0-.72-.02-1.28-.05-1.67-.01-.4-.05-.78-.1-1.15h4.43l.13,1.63c.36-.64.83-1.13,1.42-1.48.59-.33,1.27-.5,2.07-.5,1.37,0,2.42.35,3.13,1.06.73.7,1.09,1.72,1.09,3.05v11.92h-4.42v-10.69c0-1.02-.12-1.72-.33-2.1-.21-.38-.59-.57-1.11-.57-.56,0-1.01.21-1.34.61-.35.39-.51.94-.51,1.61v11.13Z"/>
      <path class="cls-1" d="m355.79,111.66c-.65.09-1.25.14-1.79.19-.54.04-.98.06-1.35.06-1.35,0-2.35-.33-2.99-.98-.64-.67-.96-1.7-.96-3.11v-9.04h-2.06v-2.67h2.06v-2.66l4.3-1.91v4.56h2.79v2.67h-2.79v8.47c0,.8.1,1.31.32,1.55.22.25.65.36,1.29.36.17,0,.5-.01.98-.06.1,0,.17,0,.21,0v2.57Z"/>
      <path class="cls-1" d="m363.88,95.75c2.27,0,3.9.61,4.88,1.83,1,1.2,1.48,3.21,1.48,6.03,0,3.27-.47,5.51-1.41,6.7-.94,1.21-2.63,1.81-5.05,1.81s-4.11-.6-5.06-1.81c-.95-1.21-1.43-3.43-1.43-6.7,0-2.84.51-4.85,1.52-6.06,1.02-1.2,2.72-1.8,5.07-1.8m-2.17,8.06c0,2.2.15,3.68.46,4.45.29.77.83,1.15,1.59,1.15s1.31-.38,1.61-1.15c.3-.77.45-2.25.45-4.45s-.15-3.59-.45-4.27c-.3-.68-.85-1.03-1.63-1.03s-1.31.34-1.59,1.03c-.3.69-.44,2.1-.44,4.26"/>
      <polygon class="cls-1" points="381.1 111.78 381.1 89.32 393.21 89.32 393.21 92.78 385.82 92.78 385.82 98.17 392.61 98.17 392.61 101.62 385.82 101.62 385.82 108.15 393.48 108.15 393.48 111.78 381.1 111.78"/>
      <path class="cls-1" d="m403.84,97.4v-8.08h4.3v18.97c0,.52,0,1.07.03,1.65.01.59.05,1.19.09,1.8h-4.3l-.15-1.49c-.3.6-.77,1.05-1.36,1.39-.6.32-1.28.49-2.07.49-.61,0-1.19-.11-1.74-.33-.53-.22-.99-.51-1.35-.89-.54-.57-.91-1.33-1.14-2.3-.21-.98-.33-2.62-.33-4.93,0-2.87.34-4.92,1.01-6.13.66-1.22,1.77-1.83,3.32-1.83.81,0,1.51.13,2.1.4.61.27,1.13.7,1.58,1.28m-.03,4.68c0-1.2-.15-2.1-.45-2.69-.3-.59-.76-.87-1.37-.87-.68,0-1.14.34-1.42,1.01-.27.68-.4,2.08-.4,4.23v.38c0,2.42.12,3.92.37,4.51.25.58.7.86,1.38.86s1.2-.27,1.48-.82c.27-.55.41-1.62.41-3.2v-3.39Z"/>
      <path class="cls-1" d="m418.96,96.11h4.42v13.57c0,.53,0,.94.04,1.22.01.3.05.58.08.84h-4.39l-.15-1.67c-.36.67-.84,1.2-1.42,1.53-.59.35-1.26.52-2.03.52-1.37,0-2.42-.36-3.15-1.07-.73-.74-1.1-1.76-1.1-3.11v-11.85h4.42v10.66c0,1.03.11,1.73.32,2.1.22.35.58.54,1.11.54s1.01-.19,1.35-.6c.33-.39.5-.93.5-1.61v-11.1Z"/>
      <path class="cls-1" d="m434.76,106h4.39c0,2.04-.54,3.58-1.6,4.6-1.07,1.02-2.66,1.53-4.79,1.53-2.43,0-4.12-.61-5.06-1.82-.95-1.2-1.43-3.43-1.43-6.7,0-2.82.49-4.83,1.51-6.04,1.01-1.21,2.67-1.82,4.98-1.82,2.04,0,3.61.5,4.72,1.5,1.11,1.01,1.67,2.42,1.67,4.26v.15h-4.39v-.15c0-1.02-.17-1.76-.5-2.27-.35-.49-.84-.73-1.53-.73-.77,0-1.31.34-1.6,1.03-.28.69-.43,2.1-.43,4.26s.14,3.68.44,4.45c.3.77.85,1.15,1.62,1.15.63,0,1.14-.27,1.48-.81.35-.52.52-1.31.52-2.31v-.29Z"/>
      <path class="cls-1" d="m441.73,100.18v-.31c0-1.35.52-2.36,1.57-3.06,1.04-.7,2.56-1.06,4.58-1.06s3.43.36,4.37,1.09c.92.72,1.39,1.86,1.39,3.43v7.83c0,.69.02,1.34.08,1.95.04.62.12,1.19.22,1.73h-3.9l-.34-1.78c-.39.58-.98,1.04-1.76,1.37-.77.36-1.59.53-2.45.53-1.29,0-2.31-.44-3.06-1.31-.75-.89-1.13-2.07-1.13-3.57,0-1.76.55-3.06,1.64-3.9,1.09-.85,2.86-1.34,5.3-1.47h1.37v-.74c0-1.08-.12-1.84-.4-2.27-.27-.44-.71-.65-1.34-.65-.69,0-1.2.17-1.54.54-.35.37-.53.91-.53,1.63h-4.07Zm7.88,3.86c-1.58,0-2.66.21-3.26.62-.6.43-.9,1.17-.9,2.24,0,.77.15,1.36.44,1.79.32.43.73.64,1.26.64.8,0,1.4-.33,1.83-1,.43-.68.64-1.66.64-2.93v-1.36Z"/>
      <path class="cls-1" d="m464.43,111.66c-.66.09-1.26.14-1.8.19-.54.04-.99.06-1.35.06-1.36,0-2.34-.33-3-.98-.64-.67-.95-1.7-.95-3.11v-9.04h-2.05v-2.67h2.05v-2.66l4.29-1.91v4.56h2.81v2.67h-2.81v8.47c0,.8.11,1.31.32,1.55.21.25.65.36,1.29.36.17,0,.5-.01.97-.06.11,0,.17,0,.22,0v2.57Z"/>
      <path class="cls-1" d="m470.6,93h-4.42v-3.72h4.42v3.72Zm0,18.79h-4.42v-15.68h4.42v15.68Z"/>
      <path class="cls-1" d="m476.46,111.78l-3.98-15.68h4.49l1.11,6.31c.16.92.3,1.94.44,3.11.13,1.16.27,2.41.38,3.77.22-1.65.66-3.8,1.34-6.44l.1-.34,1.67-6.4h4.26l-5.04,15.68h-4.77Z"/>
      <path class="cls-1" d="m493.98,95.75c2.27,0,3.88.61,4.88,1.83.99,1.2,1.49,3.21,1.49,6.03,0,3.27-.48,5.51-1.42,6.7-.94,1.21-2.62,1.81-5.04,1.81s-4.12-.6-5.07-1.81c-.96-1.21-1.44-3.43-1.44-6.7,0-2.84.52-4.85,1.53-6.06,1.02-1.2,2.71-1.8,5.07-1.8m-2.17,8.06c0,2.2.15,3.68.45,4.45.3.77.83,1.15,1.6,1.15s1.31-.38,1.62-1.15c.3-.77.45-2.25.45-4.45s-.15-3.59-.45-4.27c-.31-.68-.86-1.03-1.65-1.03s-1.3.34-1.58,1.03c-.29.69-.44,2.1-.44,4.26"/>
    </g>
  </g>
</svg>